<svg width="50" height="50" viewBox="0 0 50 50" fill="none" xmlns="http://www.w3.org/2000/svg">
<path d="M44.944 38.5823H5.6921C3.65301 38.5823 2 40.2353 2 42.2744V43.3078C2 45.3469 3.65301 46.9999 5.6921 46.9999H44.944C46.9831 46.9999 48.6361 45.3469 48.6361 43.3078V42.2744C48.6361 40.2353 46.9831 38.5823 44.944 38.5823Z" stroke="#254995" stroke-width="2" stroke-linecap="round" stroke-linejoin="round"/>
<path d="M11.6573 30.9494H22.803C22.803 30.9128 22.803 30.8742 22.803 30.8376C22.803 27.88 19.5717 25.4816 15.5865 25.4816C13.5911 25.4816 11.7846 26.0832 10.4793 27.0529V29.7733C10.4793 29.9279 10.5098 30.081 10.569 30.2238C10.6282 30.3667 10.715 30.4964 10.8245 30.6056C10.9339 30.7149 11.0637 30.8014 11.2066 30.8604C11.3496 30.9194 11.5027 30.9497 11.6573 30.9494V30.9494Z" stroke="#254995" stroke-width="2" stroke-linecap="round" stroke-linejoin="round"/>
<path d="M30.2952 22.3042C30.116 22.2906 29.936 22.3142 29.7665 22.3737C29.5969 22.4331 29.4415 22.527 29.31 22.6494C29.1785 22.7718 29.0738 22.9202 29.0025 23.085C28.9311 23.2499 28.8947 23.4278 28.8955 23.6075V29.777C28.895 30.0886 28.7708 30.3873 28.5503 30.6074C28.3298 30.8275 28.031 30.9512 27.7194 30.9512H11.6573C11.3458 30.9507 11.0471 30.8265 10.827 30.606C10.6068 30.3855 10.4832 30.0867 10.4832 29.7751V23.7193C10.4827 23.3283 10.3271 22.9534 10.0506 22.6769C9.77414 22.4005 9.39929 22.2449 9.00828 22.2444H7.1497C6.75546 22.2444 6.37735 22.401 6.09858 22.6798C5.81981 22.9585 5.66321 23.3366 5.66321 23.7309V38.4298H45.0713C45.0695 34.3815 43.5516 30.4806 40.8166 27.4959C38.0816 24.5111 34.328 22.6589 30.2952 22.3042V22.3042Z" stroke="#254995" stroke-width="2" stroke-linecap="round" stroke-linejoin="round"/>
<path d="M39.6941 31.1789C39.6371 30.6868 39.4002 30.2331 39.0291 29.905C38.6579 29.5769 38.1786 29.3975 37.6832 29.4013C37.5714 29.4013 37.4576 29.4148 37.3458 29.4206C37.2782 28.9559 37.0517 28.529 36.7047 28.2126C36.3577 27.8962 35.9118 27.7099 35.4429 27.6854C35.0018 27.6608 34.5653 27.7851 34.2032 28.0382C33.9726 28.1953 33.777 28.3987 33.629 28.6353C33.481 28.8719 33.3837 29.1367 33.3433 29.4128C32.8674 29.3338 32.3788 29.426 31.9644 29.6731C31.55 29.9201 31.2366 30.3061 31.0799 30.7624C30.9272 31.2273 30.947 31.7315 31.1357 32.183C31.3244 32.6344 31.6694 33.0027 32.1075 33.2206C31.8861 33.6337 31.8178 34.1117 31.9147 34.5702C32.0063 35.0359 32.2639 35.4524 32.6396 35.7424C32.9539 35.9958 33.3394 36.1447 33.7424 36.1685C34.0365 36.191 34.3319 36.1486 34.6077 36.0443C34.8836 35.9401 35.1332 35.7764 35.3388 35.565C35.6671 35.8996 36.1009 36.1104 36.5668 36.1617C37.0328 36.213 37.5021 36.1017 37.8953 35.8465C38.2548 35.615 38.529 35.2725 38.6761 34.871C38.778 34.603 38.8218 34.3164 38.8045 34.0302C38.7872 33.744 38.7093 33.4648 38.5759 33.211L38.6337 33.1801C38.8842 33.0473 39.1039 32.863 39.2783 32.6394C39.4528 32.4158 39.578 32.1579 39.6459 31.8826C39.671 31.7843 39.6864 31.6898 39.7057 31.5838V31.2251C39.7057 31.2232 39.698 31.2001 39.6941 31.1789Z" stroke="#254995" stroke-width="2" stroke-linecap="round" stroke-linejoin="round"/>
<path d="M8.10785 21.5869V13.1925" stroke="#254995" stroke-width="2" stroke-linecap="round" stroke-linejoin="round"/>
<path d="M8.37196 13.0615C10.8742 13.0615 12.9027 11.0331 12.9027 8.53077C12.9027 6.0285 10.8742 4 8.37196 4C5.86968 4 3.84119 6.0285 3.84119 8.53077C3.84119 11.0331 5.86968 13.0615 8.37196 13.0615Z" stroke="#254995" stroke-width="2" stroke-linecap="round" stroke-linejoin="round"/>
<path d="M8.87714 44.9272V46.9998" stroke="#254995" stroke-width="2" stroke-linecap="round" stroke-linejoin="round"/>
<path d="M12.1489 44.9272V46.9998" stroke="#254995" stroke-width="2" stroke-linecap="round" stroke-linejoin="round"/>
<path d="M15.4207 44.9272V46.9998" stroke="#254995" stroke-width="2" stroke-linecap="round" stroke-linejoin="round"/>
</svg>
