<svg width="50" height="50" viewBox="0 0 50 50" fill="none" xmlns="http://www.w3.org/2000/svg">
<path d="M35.703 21.3898C35.728 21.2723 35.7396 21.149 35.7396 21.0238V17.6317C35.7396 16.632 34.9286 15.8211 33.9289 15.8211H32.3783C31.3786 15.8211 30.5677 16.632 30.5677 17.6317V21.0238C30.5677 21.122 30.5754 21.2164 30.5908 21.3108L35.703 21.3898Z" stroke="#C0400F" stroke-width="2" stroke-miterlimit="10" stroke-linecap="round" stroke-linejoin="round"/>
<path d="M39.5785 34.7865C39.9888 34.7865 40.3914 34.8173 40.7863 34.8693C42.0768 33.442 42.8627 31.5485 42.8627 29.474C42.8627 25.0263 39.2569 21.4205 34.8092 21.4205H23.4176V34.7865H39.5785ZM32.7386 26.5442V30.9861V26.5442ZM29.9571 26.5442V30.9861V26.5442ZM27.1756 26.5442V30.9861V26.5442Z" stroke="#C0400F" stroke-width="2" stroke-miterlimit="10" stroke-linecap="round" stroke-linejoin="round"/>
<path d="M23.1036 14.3917H5.11664C5.0993 14.3917 5.08389 14.3898 5.06848 14.3898V34.7864H10.6063H23.4176V21.4204V14.3666C23.3136 14.382 23.2096 14.3917 23.1036 14.3917ZM20.0775 23.2253C20.0814 23.2542 20.091 23.2831 20.0987 23.312C20.0987 23.4719 20.0987 23.6317 20.0987 23.7916C20.0718 23.9245 20.0525 24.0613 20.0178 24.1923C19.8156 24.9666 19.361 25.5464 18.6598 25.9336C18.6367 25.947 18.6136 25.9586 18.5828 25.9759C18.943 26.7002 18.9969 27.4437 18.7176 28.2026C18.5154 28.7516 18.159 29.185 17.6717 29.5105C16.697 30.1577 15.2408 30.1346 14.2411 29.133C13.6478 29.7166 12.9332 29.9959 12.1011 29.9439C11.5502 29.9093 11.0552 29.7147 10.6218 29.3718C10.1094 28.9654 9.78385 28.4396 9.65095 27.8001C9.51996 27.1663 9.60664 26.5576 9.90328 25.9836C9.76459 25.9162 9.63746 25.8372 9.51611 25.7506C8.54722 25.0533 8.1562 23.7878 8.52411 22.6879C8.90743 21.5418 10.1075 20.6461 11.5617 20.8715C11.6927 20.0991 12.0683 19.4769 12.7156 19.0281C13.2144 18.6814 13.7711 18.5292 14.3779 18.5542C15.6376 18.6082 16.7452 19.5751 16.9301 20.8676C17.0804 20.858 17.2325 20.8426 17.3828 20.8406C18.0184 20.8387 18.604 21.0545 19.0682 21.4185C19.6095 21.8481 19.987 22.4837 20.0775 23.2253Z" stroke="#C0400F" stroke-width="2" stroke-miterlimit="10" stroke-linecap="round" stroke-linejoin="round"/>
<path d="M40.7863 34.8693C40.3914 34.8173 39.9888 34.7865 39.5785 34.7865H23.4176H10.6063H5.06653H2.4045C2.18106 34.7865 2 34.9675 2 35.191V43.8089C2 44.0323 2.18106 44.2134 2.4045 44.2134H4.66588C4.66588 41.5687 6.80976 39.4248 9.45445 39.4248C12.0991 39.4248 14.243 41.5687 14.243 44.2134H18.9777C18.9777 41.5687 21.1215 39.4248 23.7662 39.4248C26.4109 39.4248 28.5548 41.5687 28.5548 44.2134H33.2894C33.2894 41.5687 35.4333 39.4248 38.078 39.4248C40.7227 39.4248 42.8666 41.5687 42.8666 44.2134H48.2002C48.4237 44.2134 48.6048 44.0323 48.6048 43.8089C48.599 39.2341 45.1973 35.4587 40.7863 34.8693Z" stroke="#C0400F" stroke-width="2" stroke-miterlimit="10" stroke-linecap="round" stroke-linejoin="round"/>
<path d="M20.0775 23.2254C19.987 22.4838 19.6095 21.8482 19.0643 21.4206C18.6001 21.0546 18.0165 20.8408 17.3789 20.8427C17.2287 20.8427 17.0765 20.8601 16.9262 20.8697C16.7413 19.5772 15.6338 18.6102 14.374 18.5563C13.7673 18.5313 13.2106 18.6834 12.7117 19.0301C12.0645 19.479 11.6889 20.1011 11.5579 20.8735C10.1055 20.6482 8.90357 21.5439 8.52025 22.69C8.15234 23.7898 8.54336 25.0573 9.51225 25.7526C9.6336 25.8393 9.76073 25.9183 9.89942 25.9857C9.60278 26.5616 9.51418 27.1684 9.64709 27.8021C9.77999 28.4416 10.1055 28.9675 10.6179 29.3739C11.0513 29.7168 11.5463 29.9113 12.0972 29.946C12.9294 29.998 13.644 29.7187 14.2373 29.1351C15.237 30.1367 16.6932 30.1598 17.6678 29.5126C18.1571 29.1871 18.5115 28.7556 18.7138 28.2047C18.9931 27.4477 18.9391 26.7042 18.5789 25.978C18.6098 25.9607 18.6348 25.9491 18.656 25.9356C19.3571 25.5485 19.8117 24.9687 20.014 24.1943C20.0486 24.0633 20.0679 23.9266 20.0949 23.7937C20.0949 23.6338 20.0949 23.4739 20.0949 23.314C20.091 23.2832 20.0814 23.2563 20.0775 23.2254Z" stroke="#C0400F" stroke-width="2" stroke-miterlimit="10" stroke-linecap="round" stroke-linejoin="round"/>
<path d="M9.4544 39.4229C6.80971 39.4229 4.66583 41.5668 4.66583 44.2115C4.66583 46.8562 6.80971 49 9.4544 49C12.0991 49 14.243 46.8562 14.243 44.2115C14.241 41.5668 12.0991 39.4229 9.4544 39.4229ZM9.4544 45.5695C8.7051 45.5695 8.09642 44.9608 8.09642 44.2115C8.09642 43.4622 8.7051 42.8535 9.4544 42.8535C10.2037 42.8535 10.8124 43.4622 10.8124 44.2115C10.8124 44.9608 10.2037 45.5695 9.4544 45.5695Z" stroke="#C0400F" stroke-width="2" stroke-miterlimit="10" stroke-linecap="round" stroke-linejoin="round"/>
<path d="M38.074 39.423C35.4293 39.423 33.2855 41.5669 33.2855 44.2115C33.2855 46.8562 35.4293 49.0001 38.074 49.0001C40.7187 49.0001 42.8626 46.8562 42.8626 44.2115C42.8607 41.5669 40.7187 39.423 38.074 39.423ZM38.074 45.5695C37.3247 45.5695 36.716 44.9608 36.716 44.2115C36.716 43.4622 37.3247 42.8536 38.074 42.8536C38.8233 42.8536 39.432 43.4622 39.432 44.2115C39.432 44.9608 38.8233 45.5695 38.074 45.5695Z" stroke="#C0400F" stroke-width="2" stroke-miterlimit="10" stroke-linecap="round" stroke-linejoin="round"/>
<path d="M23.7643 39.4229C21.1196 39.4229 18.9757 41.5668 18.9757 44.2115C18.9757 46.8562 21.1196 49 23.7643 49C26.409 49 28.5528 46.8562 28.5528 44.2115C28.5509 41.5668 26.409 39.4229 23.7643 39.4229ZM23.7643 45.5695C23.015 45.5695 22.4063 44.9608 22.4063 44.2115C22.4063 43.4622 23.015 42.8535 23.7643 42.8535C24.5136 42.8535 25.1223 43.4622 25.1223 44.2115C25.1223 44.9608 24.5136 45.5695 23.7643 45.5695Z" stroke="#C0400F" stroke-width="2" stroke-miterlimit="10" stroke-linecap="round" stroke-linejoin="round"/>
<path d="M9.45442 45.5697C10.2044 45.5697 10.8124 44.9617 10.8124 44.2117C10.8124 43.4617 10.2044 42.8538 9.45442 42.8538C8.70442 42.8538 8.09644 43.4617 8.09644 44.2117C8.09644 44.9617 8.70442 45.5697 9.45442 45.5697Z" stroke="#C0400F" stroke-width="2" stroke-miterlimit="10" stroke-linecap="round" stroke-linejoin="round"/>
<path d="M23.7643 45.5695C24.5143 45.5695 25.1223 44.9616 25.1223 44.2116C25.1223 43.4616 24.5143 42.8536 23.7643 42.8536C23.0143 42.8536 22.4063 43.4616 22.4063 44.2116C22.4063 44.9616 23.0143 45.5695 23.7643 45.5695Z" stroke="#C0400F" stroke-width="2" stroke-miterlimit="10" stroke-linecap="round" stroke-linejoin="round"/>
<path d="M38.0742 45.5695C38.8242 45.5695 39.4321 44.9615 39.4321 44.2115C39.4321 43.4615 38.8242 42.8535 38.0742 42.8535C37.3242 42.8535 36.7162 43.4615 36.7162 44.2115C36.7162 44.9615 37.3242 45.5695 38.0742 45.5695Z" stroke="#C0400F" stroke-width="2" stroke-miterlimit="10" stroke-linecap="round" stroke-linejoin="round"/>
<path d="M23.1036 10H5.1166C3.90308 10 2.92072 10.9824 2.92072 12.1959C2.92072 13.3921 3.87804 14.3629 5.06844 14.3898C5.08578 14.3898 5.10119 14.3918 5.1166 14.3918H23.1055C23.2115 14.3918 23.3155 14.3821 23.4195 14.3667C24.4828 14.2146 25.3014 13.3015 25.3014 12.1959C25.2995 10.9824 24.3171 10 23.1036 10Z" stroke="#C0400F" stroke-width="2" stroke-miterlimit="10" stroke-linecap="round" stroke-linejoin="round"/>
</svg>
