<svg width="35" height="35" viewBox="0 0 35 35" fill="none" xmlns="http://www.w3.org/2000/svg">
<circle cx="17.5" cy="17.5" r="17.5" fill="#46B485"/>
<path d="M17.4998 7.53125C14.9973 7.53125 12.9686 9.55996 12.9686 12.0625C12.9686 14.565 14.9973 16.5938 17.4998 16.5938C20.0024 16.5938 22.0311 14.565 22.0311 12.0625C22.0311 9.55996 20.0024 7.53125 17.4998 7.53125Z" fill="#1A4426"/>
<path d="M12.6665 19.0104C10.164 19.0104 8.13525 21.0391 8.13525 23.5417V24.9775C8.13525 25.8877 8.79486 26.6637 9.69312 26.8104C14.8634 27.6545 20.1363 27.6545 25.3065 26.8104C26.2048 26.6637 26.8644 25.8877 26.8644 24.9775V23.5417C26.8644 21.0391 24.8357 19.0104 22.3332 19.0104H21.9213C21.6984 19.0104 21.4768 19.0457 21.2649 19.1149L20.2191 19.4564C18.4522 20.0333 16.5475 20.0333 14.7806 19.4564L13.7348 19.1149C13.5228 19.0457 13.3013 19.0104 13.0784 19.0104H12.6665Z" fill="#1A4426"/>
</svg>
