<svg width="35" height="35" viewBox="0 0 35 35" fill="none" xmlns="http://www.w3.org/2000/svg">
<circle cx="17.5" cy="17.5" r="17.5" fill="#46B485"/>
<path d="M15.1236 12.0216C15.5742 11.5591 15.5742 10.8093 15.1236 10.3468C14.673 9.88438 13.9424 9.88438 13.4918 10.3468L7.33795 16.6626C7.11265 16.8939 7 17.1969 7 17.5C7 17.6606 7.03114 17.8137 7.08755 17.9533C7.14386 18.093 7.22733 18.2238 7.33795 18.3374L13.4918 24.6532C13.9424 25.1156 14.673 25.1156 15.1236 24.6532C15.5742 24.1907 15.5742 23.4409 15.1236 22.9784L10.9395 18.6842H25.8462C26.4834 18.6842 27 18.154 27 17.5C27 16.846 26.4834 16.3158 25.8462 16.3158H10.9395L15.1236 12.0216Z" fill="black" fill-opacity="0.6"/>
</svg>
