<svg width="375" height="1155" viewBox="0 0 375 1155" fill="none" xmlns="http://www.w3.org/2000/svg">
<rect width="375" height="1155" fill="#EEFBF8"/>
<path d="M70.3654 992.807L-34 1048.5L-83 1155H452.5V1033L312.507 1008.38C309.221 1007.8 305.843 1008.06 302.681 1009.12L231.5 1033L85.2757 991.222C80.2881 989.797 74.9418 990.365 70.3654 992.807Z" fill="#B1F2DB"/>
<path d="M70.3654 992.807L-34 1048.5L-83 1155H452.5V1033L378.217 1068.31C373.884 1070.37 368.955 1070.8 364.329 1069.53L231.5 1033L85.2757 991.222C80.2881 989.797 74.9418 990.365 70.3654 992.807Z" fill="#BEF8CE"/>
<circle cx="24.9782" cy="631.358" r="34.4963" fill="#CDF3EA"/>
<circle cx="69.1134" cy="638.967" r="26.8868" fill="#CDF3EA"/>
<circle cx="-16.1132" cy="638.967" r="26.8868" fill="#CDF3EA"/>
<rect x="-16.6206" y="623.241" width="86.2407" height="42.6131" fill="#CDF3EA"/>
<circle cx="360.708" cy="474.285" r="29.2846" fill="#CDF3EA"/>
<circle cx="325.825" cy="480.744" r="22.8248" fill="#CDF3EA"/>
<rect x="325.394" y="467.394" width="73.2115" height="36.1751" fill="#CDF3EA"/>
<circle cx="360.708" cy="832.285" r="29.2846" fill="#CDF3EA"/>
<circle cx="325.825" cy="838.744" r="22.8248" fill="#CDF3EA"/>
<rect x="325.394" y="825.394" width="73.2115" height="36.1751" fill="#CDF3EA"/>
</svg>
