<svg width="50" height="50" viewBox="0 0 50 50" fill="none" xmlns="http://www.w3.org/2000/svg">
<path d="M25.9209 10.2306H24.4577H8.58087L11.1614 3H24.4577H25.9209H39.2171L41.7977 10.2306H25.9209Z" stroke="#725443" stroke-width="2" stroke-linecap="round" stroke-linejoin="round"/>
<path d="M12.7463 14.4263C15.0399 14.4263 16.8965 12.642 16.8965 10.4358H8.59796C8.59796 12.642 10.4545 14.4263 12.7463 14.4263Z" stroke="#725443" stroke-width="2" stroke-linecap="round" stroke-linejoin="round"/>
<path d="M21.0466 14.4263C23.3403 14.4263 25.1968 12.642 25.1968 10.4358H16.8964C16.8964 12.642 18.7549 14.4263 21.0466 14.4263Z" stroke="#725443" stroke-width="2" stroke-linecap="round" stroke-linejoin="round"/>
<path d="M29.347 14.4263C31.6407 14.4263 33.4991 12.642 33.4991 10.4358H25.1968C25.1968 12.642 27.0553 14.4263 29.347 14.4263Z" stroke="#725443" stroke-width="2" stroke-linecap="round" stroke-linejoin="round"/>
<path d="M37.6494 14.4263C39.9411 14.4263 41.7996 12.642 41.7996 10.4358H33.4916C33.4916 12.642 35.3557 14.4263 37.6494 14.4263Z" stroke="#725443" stroke-width="2" stroke-linecap="round" stroke-linejoin="round"/>
<path d="M25.1893 3.11972V9.97781" stroke="#725443" stroke-width="2" stroke-linecap="round" stroke-linejoin="round"/>
<path d="M18.1981 3.11972L16.8964 10.4434" stroke="#725443" stroke-width="2" stroke-linecap="round" stroke-linejoin="round"/>
<path d="M33.4972 10.4434L32.1956 3.11972" stroke="#725443" stroke-width="2" stroke-linecap="round" stroke-linejoin="round"/>
<path d="M10.9505 14.1963V25.3851" stroke="#725443" stroke-width="2" stroke-linecap="round" stroke-linejoin="round"/>
<path d="M39.2646 14.1963V25.3851" stroke="#725443" stroke-width="2" stroke-linecap="round" stroke-linejoin="round"/>
<path d="M20.1896 25.3833C20.1896 24.5527 19.8597 23.7562 19.2724 23.1689C18.6851 22.5816 17.8886 22.2516 17.058 22.2516C16.2274 22.2516 15.4309 22.5816 14.8436 23.1689C14.2563 23.7562 13.9263 24.5527 13.9263 25.3833C13.9263 25.4308 13.9263 25.4764 13.9263 25.522H20.1896C20.1896 25.4764 20.1896 25.4308 20.1896 25.3833Z" stroke="#725443" stroke-width="2" stroke-linecap="round" stroke-linejoin="round"/>
<path d="M36.2109 23.0953C36.2074 22.4447 35.9474 21.8218 35.4874 21.3618C35.0273 20.9017 34.4044 20.6417 33.7538 20.6382H25.2026C24.552 20.6417 23.9291 20.9017 23.4691 21.3618C23.009 21.8218 22.749 22.4447 22.7455 23.0953V25.522H36.209L36.2109 23.0953Z" stroke="#725443" stroke-width="2" stroke-linecap="round" stroke-linejoin="round"/>
<path d="M36.3667 48.2132C36.3672 48.4214 36.45 48.6209 36.597 48.7683C36.744 48.9156 36.9433 48.9989 37.1515 48.9999H37.1857C37.3939 48.9989 37.5932 48.9156 37.7402 48.7683C37.8872 48.6209 37.97 48.4214 37.9705 48.2132V45.5832H36.3667V48.2132Z" stroke="#725443" stroke-width="2" stroke-linecap="round" stroke-linejoin="round"/>
<path d="M9.40369 29.1098V45.1729H12.1306C11.9446 44.738 11.923 44.2504 12.0698 43.8009C12.2195 43.3637 12.5192 42.9937 12.9158 42.7565C13.3123 42.5192 13.7801 42.4301 14.2361 42.5049C14.2756 42.2414 14.369 41.989 14.5106 41.7634C14.6522 41.5378 14.8389 41.3438 15.0589 41.1937C15.4056 40.9523 15.8228 40.8332 16.2447 40.8554C16.6921 40.8788 17.1178 41.0559 17.4498 41.3567C17.7818 41.6576 17.9998 42.0638 18.067 42.5068C18.1735 42.5068 18.2818 42.4878 18.3901 42.4878C18.8654 42.4852 19.3249 42.6584 19.6802 42.9741C20.0355 43.2898 20.2616 43.7257 20.3151 44.198C20.3151 44.2189 20.3246 44.2379 20.3284 44.2588V44.6028C20.3094 44.6978 20.2961 44.7928 20.2714 44.8878C20.2443 44.9892 20.2093 45.0883 20.1668 45.1843H40.9768V29.1098H9.40369ZM33.0184 36.2663C33.0164 36.8387 32.7881 37.3871 32.3834 37.7918C31.9786 38.1966 31.4302 38.4249 30.8578 38.4269H19.5227C18.9499 38.4254 18.401 38.1973 17.9959 37.7925C17.5907 37.3877 17.3621 36.839 17.3601 36.2663V36.1732C17.3616 35.6001 17.59 35.0509 17.9952 34.6457C18.4004 34.2405 18.9496 34.0121 19.5227 34.0106H30.8578C31.4305 34.0126 31.9792 34.2412 32.384 34.6464C32.7889 35.0515 33.0169 35.6004 33.0184 36.1732V36.2663Z" stroke="#725443" stroke-width="2" stroke-linecap="round" stroke-linejoin="round"/>
<path d="M20.315 44.1865C20.2616 43.7142 20.0355 43.2784 19.6802 42.9627C19.3249 42.647 18.8654 42.4738 18.3901 42.4763C18.2818 42.4763 18.1734 42.4896 18.067 42.4953C17.9998 42.0523 17.7818 41.6461 17.4498 41.3452C17.1178 41.0444 16.6921 40.8673 16.2447 40.844C15.8215 40.8251 15.4041 40.9482 15.0589 41.1936C14.8384 41.3442 14.6515 41.5387 14.5099 41.765C14.3683 41.9913 14.2751 42.2445 14.2361 42.5086C13.7801 42.4338 13.3123 42.523 12.9158 42.7602C12.5192 42.9974 12.2195 43.3674 12.0698 43.8046C11.923 44.2542 11.9446 44.7418 12.1306 45.1766C12.3084 45.6052 12.6369 45.954 13.0541 46.1571C12.8392 46.5529 12.7718 47.0123 12.8641 47.4531C12.9513 47.8982 13.1971 48.2966 13.5558 48.5743C13.8592 48.8196 14.2322 48.9632 14.6218 48.9847C14.9015 49.0063 15.1824 48.9665 15.445 48.868C15.7077 48.7695 15.9456 48.6148 16.142 48.4147C16.4565 48.7346 16.8718 48.9362 17.3178 48.9854C17.7637 49.0346 18.213 48.9283 18.5896 48.6845C18.9324 48.4619 19.1943 48.1347 19.3364 47.7515C19.4339 47.4949 19.4756 47.2206 19.4589 46.9467C19.4422 46.6728 19.3674 46.4056 19.2395 46.1628L19.2946 46.1324C19.6844 45.9257 19.9901 45.5898 20.1592 45.1823C20.2017 45.0863 20.2367 44.9872 20.2637 44.8858C20.2884 44.7927 20.3017 44.6958 20.3207 44.6008V44.2569C20.3245 44.234 20.3169 44.2074 20.315 44.1865Z" stroke="#725443" stroke-width="2" stroke-linecap="round" stroke-linejoin="round"/>
<path d="M41.4119 25.5221H8.97802C8.5128 25.5236 8.06707 25.709 7.73811 26.038C7.40915 26.367 7.22367 26.8127 7.22217 27.2779V27.3539C7.22367 27.8192 7.40915 28.2649 7.73811 28.5938C8.06707 28.9228 8.5128 29.1083 8.97802 29.1098H41.4214C41.8866 29.1083 42.3324 28.9228 42.6613 28.5938C42.9903 28.2649 43.1758 27.8192 43.1773 27.3539V27.2779C43.1758 26.8111 42.989 26.3639 42.658 26.0347C42.327 25.7054 41.8788 25.5211 41.4119 25.5221V25.5221Z" stroke="#725443" stroke-width="2" stroke-linecap="round" stroke-linejoin="round"/>
<path d="M30.8559 34.0106H19.5226C18.3283 34.0106 17.3601 34.9788 17.3601 36.1731V36.2643C17.3601 37.4587 18.3283 38.4269 19.5226 38.4269H30.8559C32.0502 38.4269 33.0184 37.4587 33.0184 36.2643V36.1731C33.0184 34.9788 32.0502 34.0106 30.8559 34.0106Z" stroke="#725443" stroke-width="2" stroke-linecap="round" stroke-linejoin="round"/>
</svg>
