<svg width="50" height="50" viewBox="0 0 50 50" fill="none" xmlns="http://www.w3.org/2000/svg">
<path d="M11.4353 9.91827L13.0229 10.7121" stroke="#228597" stroke-width="2" stroke-linecap="round" stroke-linejoin="round"/>
<path d="M47.8154 46.6622L39.2372 29.389C39.1913 29.3009 39.1379 29.2169 39.0776 29.138C38.7649 30.5221 37.988 31.7575 36.876 32.639C35.7641 33.5205 34.384 33.995 32.965 33.9836C32.9778 34.8836 32.7927 35.7754 32.4228 36.5959C32.0529 37.4164 31.5072 38.1457 30.8244 38.732C30.059 39.4128 29.1293 39.8823 28.1271 40.0943C28.2063 40.1547 28.291 40.2074 28.3801 40.2519L45.6533 48.8301C45.9564 48.9815 46.2995 49.0335 46.6339 48.9789C46.9683 48.9243 47.277 48.7658 47.5162 48.5259C47.7555 48.2861 47.9131 47.9769 47.9668 47.6424C48.0205 47.3079 47.9675 46.9649 47.8154 46.6622V46.6622Z" stroke="#228597" stroke-width="2" stroke-linecap="round" stroke-linejoin="round"/>
<path d="M38.6728 25.2788C38.3152 24.4792 37.791 23.7653 37.1352 23.1847C36.4794 22.6041 35.7072 22.1702 34.8703 21.9121C34.8956 21.8323 34.9131 21.7758 34.9286 21.7175C35.1843 20.8891 35.2615 20.0159 35.1551 19.1555C35.0488 18.2951 34.7614 17.4671 34.3117 16.7258C34.1541 16.4592 33.9692 16.2082 33.798 15.9474L33.0196 15.169C32.9599 15.1366 32.902 15.1009 32.8464 15.062C32.0499 14.4356 31.111 14.0158 30.1132 13.84C29.1153 13.6641 28.0895 13.7376 27.1269 14.0539C27.4965 15.1022 27.5692 16.2323 27.3371 17.3194C27.0377 18.7194 26.2642 19.9731 25.1473 20.8688C24.0304 21.7644 22.6386 22.247 21.207 22.2351C21.2198 23.1351 21.0347 24.0269 20.6648 24.8474C20.2949 25.6679 19.7492 26.3971 19.0663 26.9835C18.1427 27.8033 16.9861 28.3142 15.758 28.445C14.8397 28.5581 13.9076 28.4589 13.0336 28.155C12.5398 29.6907 12.6612 31.3581 13.3722 32.8061C14.0477 34.1383 15.1795 35.1834 16.5613 35.7507C17.9431 36.318 19.4828 36.3697 20.8995 35.8964C21.3234 37.2707 22.2195 38.4508 23.4294 39.2281C24.6297 40.0347 26.0811 40.3802 27.5161 40.2011C27.7224 40.1758 27.9248 40.1388 28.1233 40.098C29.1255 39.886 30.0551 39.4165 30.8205 38.7357C31.5034 38.1494 32.049 37.4201 32.419 36.5996C32.7889 35.7791 32.974 34.8873 32.9612 33.9874C34.3804 33.9991 35.761 33.5248 36.8734 32.6433C37.9857 31.7618 38.7629 30.5261 39.0757 29.1417C39.0757 29.1183 39.0874 29.095 39.0913 29.0716C39.3674 27.7954 39.2205 26.464 38.6728 25.2788Z" stroke="#228597" stroke-width="2" stroke-linecap="round" stroke-linejoin="round"/>
<path d="M15.7697 28.4452C16.9978 28.3144 18.1543 27.8035 19.078 26.9837C19.7609 26.3973 20.3065 25.6681 20.6764 24.8476C21.0464 24.027 21.2315 23.1353 21.2187 22.2353C22.6503 22.2472 24.0421 21.7646 25.159 20.8689C26.2759 19.9733 27.0494 18.7196 27.3487 17.3195C27.5771 16.2314 27.5003 15.1013 27.1269 14.0541C27.0646 13.8789 26.9965 13.7038 26.9167 13.5306C26.5591 12.731 26.0349 12.0171 25.3791 11.4365C24.7233 10.8559 23.9511 10.422 23.1141 10.1639C23.1394 10.0841 23.1569 10.0277 23.1725 9.9693C23.4281 9.14091 23.5053 8.26775 23.399 7.40737C23.2927 6.54698 23.0052 5.71889 22.5556 4.97766C22.398 4.71105 22.2131 4.46001 22.0418 4.19924L21.2634 3.42082C21.2035 3.38886 21.1456 3.35311 21.0902 3.31378C19.9032 2.38044 18.414 1.91708 16.907 2.01221C15.4 2.10734 13.9809 2.75429 12.9207 3.82949C12.6794 4.07274 12.4634 4.34324 12.2357 4.60791C11.0853 3.75893 9.67677 3.33388 8.24882 3.40481C6.82087 3.47575 5.46139 4.03831 4.40085 4.99712C3.39645 5.89625 2.72283 7.10643 2.48788 8.43386C2.32806 9.27138 2.34432 10.133 2.53563 10.9639C2.72693 11.7948 3.08909 12.5768 3.59907 13.2601C2.4026 14.1178 1.54869 15.3717 1.18888 16.7992C0.82906 18.2267 0.986607 19.7355 1.63356 21.0579C2.30905 22.3902 3.4409 23.4352 4.82269 24.0025C6.20449 24.5698 7.74415 24.6215 9.1609 24.1483C9.58127 25.5204 10.4723 26.7002 11.6772 27.4799C12.1018 27.7601 12.5593 27.9869 13.0394 28.1552C13.9152 28.46 14.8494 28.5592 15.7697 28.4452Z" stroke="#228597" stroke-width="2" stroke-linecap="round" stroke-linejoin="round"/>
<path d="M9.08496 13.511V16.4446" stroke="#228597" stroke-width="2" stroke-linecap="round" stroke-linejoin="round"/>
<path d="M14.0065 14.9788L16.5215 13.7486" stroke="#228597" stroke-width="2" stroke-linecap="round" stroke-linejoin="round"/>
<path d="M23.2233 26.6023L22.5945 29.1679" stroke="#228597" stroke-width="2" stroke-linecap="round" stroke-linejoin="round"/>
<path d="M25.9826 29.2201L28.4587 28.492" stroke="#228597" stroke-width="2" stroke-linecap="round" stroke-linejoin="round"/>
<path d="M27.4752 23.9321L29.4549 24.1404" stroke="#228597" stroke-width="2" stroke-linecap="round" stroke-linejoin="round"/>
<path d="M34.52 38.946L34.6776 43.1475" stroke="#228597" stroke-width="2" stroke-linecap="round" stroke-linejoin="round"/>
<path d="M40.5411 41.6123L40.6968 45.8138" stroke="#228597" stroke-width="2" stroke-linecap="round" stroke-linejoin="round"/>
<path d="M37.4254 36.4316L37.6609 44.5622" stroke="#228597" stroke-width="2" stroke-linecap="round" stroke-linejoin="round"/>
</svg>
