<svg width="50" height="50" viewBox="0 0 50 50" fill="none" xmlns="http://www.w3.org/2000/svg">
<path d="M45.2011 43.5556H4.74265C3.4291 43.5556 2.36426 44.6204 2.36426 45.934V46.6217C2.36426 47.9353 3.4291 49.0001 4.74265 49.0001H45.2011C46.5147 49.0001 47.5795 47.9353 47.5795 46.6217V45.934C47.5795 44.6204 46.5147 43.5556 45.2011 43.5556Z" stroke="#923582" stroke-width="2" stroke-linecap="round" stroke-linejoin="round"/>
<path d="M24.4516 39.9226C36.3436 39.9226 45.9741 34.7337 45.9741 28.3318H2.92712C2.92712 34.7337 12.5636 39.9226 24.4516 39.9226Z" stroke="#923582" stroke-width="2" stroke-linecap="round" stroke-linejoin="round"/>
<path d="M4.43744 31.9369H44.0516" stroke="#923582" stroke-width="2" stroke-linecap="round" stroke-linejoin="round"/>
<path d="M39.7288 35.9962H8.76013" stroke="#923582" stroke-width="2" stroke-linecap="round" stroke-linejoin="round"/>
<path d="M6.75635 28.3337L21.7977 10.4839" stroke="#923582" stroke-width="2" stroke-linecap="round" stroke-linejoin="round"/>
<path d="M42.1429 27.64L27.9756 10.6047" stroke="#923582" stroke-width="2" stroke-linecap="round" stroke-linejoin="round"/>
<path d="M22.4816 11.1346L22.5512 10.9893" stroke="#923582" stroke-width="2" stroke-linecap="round" stroke-linejoin="round"/>
<path d="M6.93866 43.1904L22.4815 11.1336" stroke="#923582" stroke-width="2" stroke-linecap="round" stroke-linejoin="round"/>
<path d="M27.4266 11.0547L43.0071 43.1908" stroke="#923582" stroke-width="2" stroke-linecap="round" stroke-linejoin="round"/>
<path d="M30.0864 5.09673C30.02 4.51761 29.7417 3.98352 29.3052 3.59716C28.8687 3.2108 28.3048 2.99944 27.7219 3.00374C27.5911 3.00374 27.4583 3.01761 27.3255 3.02554C27.2438 2.48218 26.9764 1.98389 26.5688 1.61535C26.1613 1.24681 25.6387 1.03075 25.0898 1.0039C24.5702 0.973683 24.0555 1.11963 23.6291 1.41814C23.3584 1.60316 23.1288 1.84217 22.9549 2.12015C22.7809 2.39813 22.6663 2.70908 22.6183 3.03347C22.059 2.94037 21.4848 3.0486 20.9978 3.33891C20.5108 3.62923 20.1425 4.08282 19.9584 4.61906C19.7788 5.1651 19.8019 5.75761 20.0236 6.28798C20.2453 6.81835 20.6507 7.25107 21.1655 7.50683C20.9081 7.99305 20.8295 8.55421 20.9435 9.09243C21.0518 9.63951 21.3545 10.1289 21.7958 10.4699C22.1646 10.7688 22.618 10.9442 23.092 10.9714C23.4374 10.9978 23.7844 10.9479 24.1085 10.8253C24.4325 10.7027 24.7256 10.5103 24.9669 10.2618C25.3537 10.6542 25.8638 10.9014 26.4115 10.9617C26.9591 11.022 27.5108 10.8917 27.9736 10.5928C28.3954 10.3203 28.7174 9.91829 28.8913 9.44721C29.0107 9.13224 29.0619 8.79551 29.0414 8.45929C29.0209 8.12307 28.9292 7.79505 28.7724 7.49692L28.8398 7.45927C29.1345 7.30332 29.3929 7.08668 29.5979 6.82363C29.8029 6.56058 29.9498 6.25708 30.029 5.93313C30.0587 5.81817 30.0765 5.69925 30.1003 5.58231V5.18393C30.0934 5.15528 30.0887 5.12612 30.0864 5.09673V5.09673Z" stroke="#923582" stroke-width="2" stroke-linecap="round" stroke-linejoin="round"/>
</svg>
