<svg width="50" height="50" viewBox="0 0 50 50" fill="none" xmlns="http://www.w3.org/2000/svg">
<path d="M9.36012 22.0129C10.7812 22.0129 12.1441 21.4484 13.149 20.4435C14.1538 19.4387 14.7184 18.0758 14.7184 16.6547H4C4 17.3585 4.13864 18.0554 4.40804 18.7056C4.67743 19.3558 5.07229 19.9466 5.57005 20.4442C6.06781 20.9418 6.65872 21.3364 7.30903 21.6056C7.95934 21.8748 8.6563 22.0132 9.36012 22.0129Z" stroke="#8B8B8B" stroke-width="2" stroke-linecap="round" stroke-linejoin="round"/>
<path d="M24.9308 18.9268C24.639 19.5481 24.2308 20.1077 23.7285 20.5754V45.4231H27.1451V20.5754C26.6421 20.1082 26.2339 19.5484 25.9427 18.9268H24.9308Z" stroke="#8B8B8B" stroke-width="2" stroke-linecap="round" stroke-linejoin="round"/>
<path d="M14.7184 16.6547C14.7184 18.0758 15.2829 19.4387 16.2878 20.4435C17.2926 21.4484 18.6556 22.0129 20.0767 22.0129C21.4322 22.0141 22.7375 21.5002 23.7285 20.5753C24.2308 20.1076 24.639 19.548 24.9308 18.9268C25.2642 18.2157 25.437 17.44 25.4368 16.6547H14.7184Z" stroke="#8B8B8B" stroke-width="2" stroke-linecap="round" stroke-linejoin="round"/>
<path d="M25.4368 16.6547C25.4358 17.4401 25.6086 18.216 25.9428 18.9268C26.234 19.5484 26.6422 20.1081 27.1451 20.5753C28.1352 21.5004 29.4401 22.0144 30.7951 22.0129C32.2164 22.0129 33.5794 21.4485 34.5846 20.4436C35.5898 19.4388 36.1547 18.0759 36.1552 16.6547H25.4368Z" stroke="#8B8B8B" stroke-width="2" stroke-linecap="round" stroke-linejoin="round"/>
<path d="M36.1477 16.6547C36.1477 18.0758 36.7122 19.4387 37.7171 20.4435C38.722 21.4484 40.0849 22.0129 41.506 22.0129C42.9271 22.0129 44.29 21.4484 45.2948 20.4435C46.2997 19.4387 46.8642 18.0758 46.8642 16.6547H36.1477Z" stroke="#8B8B8B" stroke-width="2" stroke-linecap="round" stroke-linejoin="round"/>
<path d="M39.2077 11.8155L25.4349 3.12097L11.664 11.8155L4 16.6548H14.7184H25.4349H36.1533H46.8717L39.2077 11.8155Z" stroke="#8B8B8B" stroke-width="2" stroke-linecap="round" stroke-linejoin="round"/>
<path d="M25.4349 3.12097L14.7184 16.6548" stroke="#8B8B8B" stroke-width="2" stroke-linecap="round" stroke-linejoin="round"/>
<path d="M25.4349 16.6548V3.12097" stroke="#8B8B8B" stroke-width="2" stroke-linecap="round" stroke-linejoin="round"/>
<path d="M36.1533 16.6548L25.4349 3.12097" stroke="#8B8B8B" stroke-width="2" stroke-linecap="round" stroke-linejoin="round"/>
<path d="M20.0132 32.1341C19.9433 31.53 19.6526 30.973 19.197 30.5702C18.7415 30.1674 18.1532 29.947 17.5451 29.9515C17.4069 29.9515 17.2688 29.9683 17.1306 29.9758C17.0456 29.4075 16.7665 28.8862 16.3408 28.5003C15.915 28.1144 15.3689 27.8877 14.795 27.8587C14.2536 27.8282 13.7176 27.9807 13.2734 28.2918C12.9913 28.4841 12.7519 28.7326 12.5704 29.0217C12.3889 29.3109 12.2691 29.6344 12.2185 29.9721C11.6335 29.8758 11.0334 29.9902 10.5247 30.2948C10.016 30.5993 9.63184 31.0744 9.44046 31.6356C9.25324 32.206 9.27755 32.8247 9.50895 33.3787C9.74034 33.9327 10.1634 34.3849 10.7007 34.6526C10.4308 35.1621 10.3488 35.7504 10.4692 36.3142C10.5825 36.8849 10.8981 37.3954 11.3579 37.7518C11.7444 38.063 12.218 38.2463 12.7133 38.2764C13.0745 38.3025 13.437 38.2492 13.7753 38.1202C14.1137 37.9912 14.4197 37.7896 14.6718 37.5297C15.0753 37.9395 15.6079 38.1976 16.1796 38.2605C16.7513 38.3234 17.3272 38.1873 17.8102 37.875C18.2503 37.5901 18.5864 37.1702 18.768 36.6783C18.8935 36.3496 18.9474 35.9978 18.9261 35.6466C18.9049 35.2953 18.809 34.9526 18.6447 34.6414L18.7157 34.6022C19.0235 34.4392 19.2933 34.2128 19.5072 33.938C19.7212 33.6632 19.8746 33.3462 19.9572 33.0078C19.989 32.8883 20.0076 32.7651 20.0319 32.6344V32.1957C20.0263 32.1863 20.017 32.1602 20.0132 32.1341Z" stroke="#8B8B8B" stroke-width="2" stroke-linecap="round" stroke-linejoin="round"/>
<path d="M41.4947 32.1341C41.424 31.53 41.1328 30.9733 40.677 30.5705C40.2212 30.1678 39.6329 29.9474 39.0247 29.9515C38.8866 29.9515 38.7484 29.9683 38.6102 29.9758C38.5259 29.4076 38.2473 28.886 37.8218 28.5C37.3964 28.114 36.8503 27.8874 36.2765 27.8587C35.7351 27.8282 35.1991 27.9807 34.7549 28.2918C34.4723 28.4835 34.2325 28.7318 34.0509 29.0211C33.8693 29.3104 33.7499 29.6342 33.7001 29.9721C33.1148 29.8758 32.5143 29.99 32.0054 30.2946C31.4964 30.5991 31.1119 31.0743 30.9201 31.6356C30.733 32.2062 30.7576 32.8251 30.9894 33.3791C31.2211 33.9331 31.6445 34.3852 32.1822 34.6526C31.91 35.1614 31.8279 35.7505 31.9507 36.3142C32.064 36.8849 32.3796 37.3954 32.8394 37.7518C33.225 38.0633 33.6982 38.2466 34.193 38.2764C34.5541 38.3025 34.9166 38.2492 35.255 38.1202C35.5933 37.9912 35.8993 37.7896 36.1514 37.5297C36.5553 37.9396 37.0881 38.1978 37.6601 38.2607C38.2322 38.3236 38.8084 38.1874 39.2917 37.875C39.7314 37.5896 40.0673 37.1699 40.2495 36.6783C40.3747 36.3494 40.4283 35.9976 40.4067 35.6464C40.3852 35.2951 40.2889 34.9525 40.1244 34.6414L40.1953 34.6022C40.5036 34.4396 40.7739 34.2134 40.9882 33.9385C41.2026 33.6637 41.3561 33.3464 41.4387 33.0078C41.4705 32.8883 41.4891 32.7651 41.5134 32.6344V32.1957C41.5062 32.1754 41.5 32.1549 41.4947 32.1341V32.1341Z" stroke="#8B8B8B" stroke-width="2" stroke-linecap="round" stroke-linejoin="round"/>
<path d="M35.2403 45.4231H15.6295C14.9252 45.4231 14.3543 45.994 14.3543 46.6982V46.8457C14.3543 47.55 14.9252 48.1209 15.6295 48.1209H35.2403C35.9446 48.1209 36.5155 47.55 36.5155 46.8457V46.6982C36.5155 45.994 35.9446 45.4231 35.2403 45.4231Z" stroke="#8B8B8B" stroke-width="2" stroke-linecap="round" stroke-linejoin="round"/>
<path d="M14.7184 19.993V27.3358" stroke="#8B8B8B" stroke-width="2" stroke-linecap="round" stroke-linejoin="round"/>
<path d="M36.1533 19.993V27.3358" stroke="#8B8B8B" stroke-width="2" stroke-linecap="round" stroke-linejoin="round"/>
</svg>
