<svg width="50" height="50" viewBox="0 0 50 50" fill="none" xmlns="http://www.w3.org/2000/svg">
<path d="M23.7932 25.1632C24.2307 24.8567 24.7586 24.7062 25.292 24.736C25.8581 24.7648 26.3969 24.9885 26.8169 25.3692C27.2369 25.75 27.5123 26.2643 27.5963 26.8249C27.7106 26.8249 27.823 26.8081 27.9354 26.8043V14.4225H22.4818V26.8006C22.5746 26.8038 22.6672 26.8126 22.759 26.8268C22.8068 26.493 22.9235 26.1728 23.1015 25.8864C23.2795 25.6001 23.515 25.3538 23.7932 25.1632Z" stroke="#D05F68" stroke-width="2" stroke-linecap="round" stroke-linejoin="round"/>
<path d="M27.9448 34.8117C27.4855 35.0163 26.9746 35.0758 26.4805 34.9824C25.9864 34.889 25.5325 34.6471 25.1796 34.289C24.9306 34.5451 24.6283 34.7433 24.2942 34.8696C23.9601 34.9959 23.6023 35.0471 23.2461 35.0197C22.9825 35.0011 22.724 34.9377 22.4818 34.8323V42.9239H27.9448V34.8117Z" stroke="#D05F68" stroke-width="2" stroke-linecap="round" stroke-linejoin="round"/>
<path d="M36.6003 42.9332H13.8263C13.4728 42.9329 13.1228 43.0023 12.7962 43.1374C12.4695 43.2725 12.1727 43.4706 11.9227 43.7205C11.6727 43.9703 11.4744 44.267 11.3391 44.5935C11.2037 44.92 11.1341 45.27 11.1341 45.6235C11.1341 46.3375 11.4177 47.0223 11.9226 47.5271C12.4275 48.032 13.1123 48.3157 13.8263 48.3157H36.6003C37.3143 48.3157 37.9991 48.032 38.5039 47.5271C39.0088 47.0223 39.2925 46.3375 39.2925 45.6235C39.2925 45.27 39.2228 44.92 39.0875 44.5935C38.9522 44.267 38.7538 43.9703 38.5038 43.7205C38.2538 43.4706 37.957 43.2725 37.6304 43.1374C37.3038 43.0023 36.9537 42.9329 36.6003 42.9332V42.9332Z" stroke="#D05F68" stroke-width="2" stroke-linecap="round" stroke-linejoin="round"/>
<path d="M28.0235 5.84207C28.0235 5.08831 27.7241 4.36542 27.1911 3.83242C26.6581 3.29943 25.9352 3 25.1814 3C24.4277 3 23.7048 3.29943 23.1718 3.83242C22.6388 4.36542 22.3394 5.08831 22.3394 5.84207C22.3394 5.85143 22.3394 5.86267 22.3394 5.87391H28.0197C28.0219 5.86342 28.0231 5.85277 28.0235 5.84207V5.84207Z" stroke="#D05F68" stroke-width="2" stroke-linecap="round" stroke-linejoin="round"/>
<path d="M36.8906 5.87387H13.5359C12.4025 5.87387 11.3155 6.32411 10.5141 7.12552C9.71268 7.92694 9.26245 9.0139 9.26245 10.1473C9.26245 11.2808 9.71262 12.368 10.514 13.1697C11.3154 13.9714 12.4023 14.4221 13.5359 14.4225H36.8906C37.4521 14.4225 38.008 14.312 38.5267 14.0971C39.0454 13.8823 39.5167 13.5673 39.9137 13.1704C40.3107 12.7734 40.6256 12.3021 40.8405 11.7834C41.0553 11.2647 41.1659 10.7087 41.1659 10.1473C41.1654 9.01373 40.7148 7.92677 39.913 7.12541C39.1113 6.32405 38.0242 5.87387 36.8906 5.87387ZM15.9245 11.9327C15.4513 11.9322 14.9977 11.7439 14.6633 11.4091C14.3288 11.0743 14.141 10.6205 14.141 10.1473C14.141 9.67408 14.3288 9.22023 14.6633 8.88545C14.9977 8.55068 15.4513 8.36235 15.9245 8.36185C16.3981 8.36185 16.8522 8.54996 17.187 8.88479C17.5219 9.21962 17.71 9.67375 17.71 10.1473C17.71 10.6208 17.5219 11.0749 17.187 11.4098C16.8522 11.7446 16.3981 11.9327 15.9245 11.9327V11.9327ZM22.107 11.9327C21.6338 11.9322 21.1802 11.7439 20.8457 11.4091C20.5113 11.0743 20.3235 10.6205 20.3235 10.1473C20.3235 9.67408 20.5113 9.22023 20.8457 8.88545C21.1802 8.55068 21.6338 8.36235 22.107 8.36185C22.5805 8.36185 23.0347 8.54996 23.3695 8.88479C23.7043 9.21962 23.8924 9.67375 23.8924 10.1473C23.8924 10.6189 23.7059 11.0713 23.3735 11.4058C23.0411 11.7403 22.5898 11.9297 22.1183 11.9327H22.107ZM28.2895 11.9327C27.816 11.9327 27.3618 11.7446 27.027 11.4098C26.6922 11.0749 26.5041 10.6208 26.5041 10.1473C26.5041 9.67375 26.6922 9.21962 27.027 8.88479C27.3618 8.54996 27.816 8.36185 28.2895 8.36185C28.763 8.36185 29.2171 8.54996 29.552 8.88479C29.8868 9.21962 30.0749 9.67375 30.0749 10.1473C30.0749 10.6176 29.8894 11.0689 29.5586 11.4032C29.2278 11.7375 28.7785 11.9278 28.3082 11.9327H28.2895ZM34.472 11.9327C33.9984 11.9327 33.5443 11.7446 33.2095 11.4098C32.8746 11.0749 32.6865 10.6208 32.6865 10.1473C32.6865 9.67375 32.8746 9.21962 33.2095 8.88479C33.5443 8.54996 33.9984 8.36185 34.472 8.36185C34.9452 8.36235 35.3988 8.55068 35.7332 8.88545C36.0677 9.22023 36.2555 9.67408 36.2555 10.1473C36.2556 10.616 36.0713 11.0659 35.7425 11.3999C35.4138 11.734 34.9668 11.9253 34.4982 11.9327H34.472Z" stroke="#D05F68" stroke-width="2" stroke-linecap="round" stroke-linejoin="round"/>
<path d="M14.3864 30.8529C14.8182 30.5712 15.1469 30.157 15.3232 29.6726C15.4474 29.3482 15.5008 29.001 15.4798 28.6543C15.4588 28.3076 15.3639 27.9693 15.2014 27.6623L15.2726 27.623C15.5765 27.4628 15.843 27.2398 16.0542 26.9688C16.2654 26.6978 16.4167 26.385 16.4978 26.0511C16.5297 25.9331 16.5484 25.8095 16.5728 25.6896V25.2568C16.5637 25.2307 16.5574 25.2037 16.554 25.1762C16.4844 24.5805 16.1974 24.0314 15.7479 23.6342C15.2985 23.237 14.7183 23.0195 14.1185 23.0236C13.9818 23.0236 13.8469 23.0386 13.7101 23.048C13.6261 22.4873 13.3507 21.973 12.9307 21.5923C12.5107 21.2115 11.9719 20.9878 11.4057 20.959C10.8723 20.929 10.3444 21.0794 9.90695 21.3862C9.62741 21.576 9.39043 21.822 9.2111 22.1084C9.03177 22.3948 8.91401 22.7154 8.86529 23.0498C8.28789 22.955 7.69556 23.0678 7.19344 23.3683C6.69132 23.6687 6.3119 24.1373 6.12252 24.691C5.93812 25.2541 5.96253 25.8648 6.19128 26.4114C6.42004 26.958 6.83787 27.404 7.36839 27.668C7.10163 28.1704 7.02069 28.7509 7.13982 29.3072C7.25113 29.8704 7.56259 30.3742 8.01661 30.7255C8.39674 31.0334 8.86398 31.2143 9.3524 31.2425C9.70853 31.27 10.0663 31.2188 10.4005 31.0925C10.7346 30.9662 11.0369 30.768 11.2858 30.5119C11.6841 30.9174 12.2103 31.1729 12.7754 31.235C13.3404 31.2972 13.9095 31.1622 14.3864 30.8529V30.8529Z" stroke="#D05F68" stroke-width="2" stroke-linecap="round" stroke-linejoin="round"/>
<path d="M44.3658 25.1762C44.2962 24.5805 44.0091 24.0314 43.5597 23.6342C43.1103 23.237 42.5301 23.0195 41.9303 23.0236C41.7935 23.0236 41.6568 23.0386 41.5219 23.048C41.4375 22.4875 41.1621 21.9734 40.7421 21.5927C40.3222 21.212 39.7836 20.9881 39.2175 20.959C38.6841 20.929 38.1561 21.0794 37.7187 21.3862C37.4392 21.576 37.2022 21.822 37.0229 22.1084C36.8436 22.3948 36.7258 22.7154 36.6771 23.0498C36.0997 22.955 35.5073 23.0678 35.0052 23.3683C34.5031 23.6687 34.1237 24.1373 33.9343 24.691C33.7498 25.2539 33.7739 25.8644 34.0023 26.411C34.2307 26.9576 34.6481 27.4037 35.1783 27.668C34.9122 28.1707 34.8319 28.7512 34.9516 29.3072C35.0629 29.8704 35.3744 30.3742 35.8284 30.7255C36.2083 31.0338 36.6757 31.2147 37.1642 31.2425C37.52 31.2697 37.8775 31.2183 38.2112 31.0921C38.545 30.9658 38.847 30.7678 39.0957 30.5119C39.4941 30.9167 40.0199 31.1716 40.5844 31.2337C41.149 31.2959 41.7176 31.1613 42.1945 30.8529C42.6258 30.5707 42.9544 30.1567 43.1312 29.6726C43.2554 29.3482 43.3088 29.001 43.2878 28.6543C43.2668 28.3076 43.1719 27.9693 43.0094 27.6623L43.0787 27.623C43.3826 27.4624 43.6491 27.2393 43.8606 26.9684C44.0721 26.6975 44.2238 26.3849 44.3059 26.0511C44.3377 25.9331 44.3546 25.8095 44.3789 25.6896V25.2568C44.3789 25.2306 44.3696 25.2043 44.3658 25.1762Z" stroke="#D05F68" stroke-width="2" stroke-linecap="round" stroke-linejoin="round"/>
<path d="M30.4515 28.9533C30.3819 28.3576 30.0948 27.8085 29.6454 27.4113C29.196 27.0141 28.6158 26.7967 28.016 26.8007H27.9467C27.8343 26.8007 27.7219 26.8138 27.6076 26.8213C27.5235 26.2607 27.2482 25.7464 26.8282 25.3656C26.4082 24.9849 25.8694 24.7612 25.3032 24.7324C24.7698 24.7026 24.242 24.8531 23.8044 25.1596C23.5249 25.3494 23.2879 25.5954 23.1086 25.8818C22.9292 26.1682 22.8115 26.4888 22.7628 26.8232C22.6709 26.809 22.5783 26.8002 22.4855 26.797C21.9493 26.7687 21.4185 26.9163 20.9739 27.2172C20.5292 27.5182 20.1949 27.9561 20.0219 28.4644C19.8365 29.0272 19.8603 29.638 20.0887 30.1848C20.3172 30.7316 20.7351 31.1777 21.2659 31.4413C20.9991 31.9438 20.9182 32.5243 21.0373 33.0806C21.1486 33.6438 21.4601 34.1476 21.9141 34.4988C22.088 34.6377 22.2803 34.7519 22.4855 34.8379C22.7278 34.9434 22.9863 35.0067 23.2499 35.0253C23.606 35.0527 23.9638 35.0015 24.2979 34.8752C24.6321 34.749 24.9343 34.5507 25.1833 34.2946C25.5363 34.6528 25.9901 34.8947 26.4842 34.9881C26.9783 35.0815 27.4892 35.0219 27.9485 34.8173C28.0639 34.7639 28.1748 34.7012 28.2802 34.63C28.7117 34.3481 29.0404 33.934 29.2169 33.4497C29.34 33.125 29.3926 32.7779 29.3713 32.4313C29.35 32.0847 29.2552 31.7466 29.0932 31.4394L29.1644 31.4001C29.4684 31.2399 29.7348 31.0169 29.9461 30.7459C30.1573 30.4749 30.3085 30.1621 30.3897 29.8283C30.4215 29.7102 30.4403 29.5866 30.4646 29.4667V29.0339C30.4583 29.0074 30.4539 28.9805 30.4515 28.9533V28.9533Z" stroke="#D05F68" stroke-width="2" stroke-linecap="round" stroke-linejoin="round"/>
<path d="M15.9283 11.9347C16.9144 11.9347 17.7137 11.1353 17.7137 10.1493C17.7137 9.16322 16.9144 8.36386 15.9283 8.36386C14.9423 8.36386 14.1429 9.16322 14.1429 10.1493C14.1429 11.1353 14.9423 11.9347 15.9283 11.9347Z" stroke="#D05F68" stroke-width="2" stroke-linecap="round" stroke-linejoin="round"/>
<path d="M22.1183 11.9347C23.1044 11.9347 23.9037 11.1353 23.9037 10.1493C23.9037 9.16322 23.1044 8.36386 22.1183 8.36386C21.1322 8.36386 20.3329 9.16322 20.3329 10.1493C20.3329 11.1353 21.1322 11.9347 22.1183 11.9347Z" stroke="#D05F68" stroke-width="2" stroke-linecap="round" stroke-linejoin="round"/>
<path d="M28.3083 11.9347C29.2943 11.9347 30.0937 11.1353 30.0937 10.1493C30.0937 9.16322 29.2943 8.36386 28.3083 8.36386C27.3222 8.36386 26.5228 9.16322 26.5228 10.1493C26.5228 11.1353 27.3222 11.9347 28.3083 11.9347Z" stroke="#D05F68" stroke-width="2" stroke-linecap="round" stroke-linejoin="round"/>
<path d="M34.4963 11.9347C35.4824 11.9347 36.2817 11.1353 36.2817 10.1493C36.2817 9.16322 35.4824 8.36386 34.4963 8.36386C33.5102 8.36386 32.7109 9.16322 32.7109 10.1493C32.7109 11.1353 33.5102 11.9347 34.4963 11.9347Z" stroke="#D05F68" stroke-width="2" stroke-linecap="round" stroke-linejoin="round"/>
<path d="M14.7274 14.6868L12.305 20.9573" stroke="#D05F68" stroke-width="2" stroke-linecap="round" stroke-linejoin="round"/>
<path d="M36.6733 14.6868L39.0957 20.9573" stroke="#D05F68" stroke-width="2" stroke-linecap="round" stroke-linejoin="round"/>
<path d="M25.1814 14.6868V24.4701" stroke="#D05F68" stroke-width="2" stroke-linecap="round" stroke-linejoin="round"/>
</svg>
