<svg width="50" height="50" viewBox="0 0 50 50" fill="none" xmlns="http://www.w3.org/2000/svg">
<path d="M41.5172 15.1482C41.3008 13.2927 40.4071 11.5823 39.0075 10.3449C37.6079 9.10757 35.8009 8.43027 33.9328 8.44285C33.5089 8.44285 33.0849 8.49147 32.661 8.51675C32.3993 6.77088 31.5418 5.16927 30.2338 3.98361C28.9259 2.79795 27.2481 2.10124 25.485 2.01167C23.8243 1.91841 22.1804 2.38622 20.8176 3.33991C18.9993 4.60398 17.9395 6.35422 17.5739 8.52453C15.7763 8.22707 13.9315 8.57705 12.3679 9.51221C10.8042 10.4474 9.62302 11.907 9.03461 13.6314C8.45782 15.3835 8.5313 17.2848 9.24162 18.9872C9.95193 20.6896 11.2516 22.0792 12.9027 22.9018C12.0713 24.4678 11.8193 26.277 12.1909 28.0106C12.5384 29.765 13.5089 31.3343 14.9232 32.429C16.109 33.3846 17.5628 33.9474 19.083 34.0392C21.4166 34.1851 23.4333 33.3994 25.1116 31.76C26.3511 33.0209 27.9879 33.8151 29.7454 34.0086C31.5029 34.2021 33.2733 33.7829 34.7574 32.8218C36.1112 31.9477 37.1439 30.6569 37.6997 29.1444C38.4776 27.0149 38.3357 24.9243 37.3108 22.8863L37.5286 22.7676C38.4747 22.2671 39.3042 21.5721 39.9625 20.7281C40.6208 19.8841 41.093 18.9104 41.348 17.8708C41.4453 17.4994 41.5017 17.1202 41.5756 16.7449V15.3835C41.5518 15.3062 41.5324 15.2277 41.5172 15.1482V15.1482Z" stroke="#CEAF2A" stroke-width="2" stroke-linecap="round" stroke-linejoin="round"/>
<path d="M25.4285 42.2519H24.7829H17.7722L18.9118 49.0001H24.7829H25.4285H31.3016L32.4412 42.2519H25.4285Z" stroke="#CEAF2A" stroke-width="2" stroke-linecap="round" stroke-linejoin="round"/>
<path d="M32.943 39.2685H17.2705C16.5681 39.2685 15.9987 39.8379 15.9987 40.5403V40.9798C15.9987 41.6823 16.5681 42.2517 17.2705 42.2517H32.943C33.6454 42.2517 34.2148 41.6823 34.2148 40.9798V40.5403C34.2148 39.8379 33.6454 39.2685 32.943 39.2685Z" stroke="#CEAF2A" stroke-width="2" stroke-linecap="round" stroke-linejoin="round"/>
<path d="M25.1058 32.0944V38.9359" stroke="#CEAF2A" stroke-width="2" stroke-linecap="round" stroke-linejoin="round"/>
<path d="M30.8894 34.389L30.1912 38.9358" stroke="#CEAF2A" stroke-width="2" stroke-linecap="round" stroke-linejoin="round"/>
<path d="M19.3221 34.389L20.0222 38.9358" stroke="#CEAF2A" stroke-width="2" stroke-linecap="round" stroke-linejoin="round"/>
<path d="M25.1058 23.9364C27.9262 23.9364 30.2126 21.65 30.2126 18.8296C30.2126 16.0092 27.9262 13.7228 25.1058 13.7228C22.2854 13.7228 19.999 16.0092 19.999 18.8296C19.999 21.65 22.2854 23.9364 25.1058 23.9364Z" stroke="#CEAF2A" stroke-width="2" stroke-linecap="round" stroke-linejoin="round"/>
<path d="M20.8624 44.6067H21.9281" stroke="#CEAF2A" stroke-width="2" stroke-linecap="round" stroke-linejoin="round"/>
<path d="M21.5955 46.4833H22.6612" stroke="#CEAF2A" stroke-width="2" stroke-linecap="round" stroke-linejoin="round"/>
</svg>
