<svg width="50" height="50" viewBox="0 0 50 50" fill="none" xmlns="http://www.w3.org/2000/svg">
<path d="M34.4905 18.3857H16.7893C16.3409 19.4376 15.6444 20.3653 14.7595 21.0896V40.3331H36.5145V21.0896C35.6317 20.3647 34.9373 19.437 34.4905 18.3857V18.3857ZM33.1678 29.3701C33.1347 29.541 33.1075 29.7158 33.0629 29.8848C32.946 30.3601 32.7298 30.8052 32.4285 31.1909C32.1272 31.5766 31.7476 31.8941 31.3147 32.1225L31.2137 32.1769C31.4447 32.6139 31.5797 33.0952 31.6099 33.5886C31.64 34.082 31.5645 34.5761 31.3885 35.038C31.1343 35.7289 30.6626 36.3186 30.0444 36.7182C29.366 37.1576 28.5566 37.3493 27.7532 37.2608C26.9498 37.1724 26.2016 36.8091 25.6351 36.2326C25.281 36.5972 24.8511 36.8795 24.3758 37.0594C23.9005 37.2394 23.3914 37.3125 22.8846 37.2738C22.1895 37.2325 21.5247 36.9751 20.983 36.5376C20.3361 36.0382 19.8924 35.3211 19.734 34.5194C19.5649 33.7285 19.6798 32.9032 20.0584 32.1885C19.3034 31.8125 18.7089 31.1774 18.3836 30.3992C18.0583 29.6209 18.024 28.7516 18.2869 27.9502C18.5569 27.1627 19.0973 26.4964 19.8121 26.0696C20.5269 25.6429 21.3699 25.4833 22.1912 25.6193C22.2604 25.1431 22.4279 24.6865 22.683 24.2786C22.9381 23.8706 23.2754 23.5202 23.6732 23.2495C24.2971 22.813 25.0497 22.5989 25.8099 22.6416C26.6148 22.6826 27.3807 23.0004 27.9782 23.5413C28.5757 24.0821 28.968 24.8128 29.0887 25.6096C29.2829 25.5979 29.4772 25.5766 29.6714 25.5766C30.5255 25.5698 31.352 25.8788 31.9923 26.4441C32.6326 27.0095 33.0415 27.7914 33.1406 28.6397C33.1469 28.6777 33.1553 28.7153 33.1658 28.7524L33.1678 29.3701Z" stroke="#DD7E49" stroke-width="2" stroke-linecap="round" stroke-linejoin="round"/>
<path d="M10.6358 22.6861C10.5153 22.6861 10.3968 22.6861 10.2745 22.6861C8.63617 22.6925 7.04683 22.1279 5.77972 21.0894V40.3387C5.82051 40.3387 5.85936 40.3387 5.9021 40.3387H14.7634V21.0894C13.5947 22.0511 12.1474 22.6109 10.6358 22.6861V22.6861Z" stroke="#DD7E49" stroke-width="2" stroke-linecap="round" stroke-linejoin="round"/>
<path d="M41.0131 22.6958C39.3744 22.6984 37.7859 22.1304 36.5203 21.0894V40.3329H44.222C44.6589 40.3339 45.0925 40.4094 45.504 40.5563V21.0894C44.2392 22.1306 42.6513 22.6986 41.0131 22.6958Z" stroke="#DD7E49" stroke-width="2" stroke-linecap="round" stroke-linejoin="round"/>
<path d="M45.504 40.5564C45.0886 40.4286 44.6566 40.3631 44.222 40.3622L36.5358 40.3913L14.7595 40.3622H10.6357L5.7797 40.3369C4.77378 40.3701 3.82 40.7924 3.11927 41.5149C2.41854 42.2374 2.02554 43.2036 2.02307 44.2101V45.1152C2.02307 46.1456 2.43237 47.1337 3.16092 47.8622C3.88946 48.5908 4.87758 49.0001 5.9079 49.0001H44.2317C45.262 49.0001 46.2501 48.5908 46.9787 47.8622C47.7072 47.1337 48.1165 46.1456 48.1165 45.1152V44.214C48.1138 43.4087 47.861 42.6242 47.3929 41.969C46.9249 41.3137 46.2648 40.8201 45.504 40.5564V40.5564Z" stroke="#DD7E49" stroke-width="2" stroke-linecap="round" stroke-linejoin="round"/>
<path d="M14.7595 40.3349H10.628V40.3659H14.7595V40.3349Z" stroke="#DD7E49" stroke-width="2" stroke-linecap="round" stroke-linejoin="round"/>
<path d="M16.2202 18.3856H14.3963C13.6984 18.3979 13.0097 18.2245 12.4008 17.8832C11.792 17.5419 11.2847 17.045 10.931 16.4432C10.6172 15.9148 10.423 15.324 10.3619 14.7125C10.2886 14.013 10.4037 13.3066 10.6954 12.6665C10.9871 12.0265 11.4447 11.4761 12.0207 11.0724L14.033 9.61369C12.9062 8.90052 11.6003 8.52134 10.2667 8.52011C8.38688 8.52011 6.58405 9.26687 5.25482 10.5961C3.92559 11.9253 3.17883 13.7282 3.17883 15.608C3.17853 16.6574 3.41176 17.6937 3.86162 18.6418C4.31147 19.5899 4.96668 20.426 5.77973 21.0895C7.04447 22.1306 8.63242 22.6986 10.2706 22.6958C10.393 22.6958 10.5114 22.6958 10.6319 22.6958C12.1449 22.6215 13.5936 22.0616 14.7634 21.0992C15.6483 20.3749 16.3447 19.4472 16.7932 18.3953L16.2202 18.3856Z" stroke="#DD7E49" stroke-width="2" stroke-linecap="round" stroke-linejoin="round"/>
<path d="M41.0131 8.52011C39.7585 8.52062 38.5267 8.85589 37.4449 9.49132L39.6204 11.0705C40.1964 11.4741 40.654 12.0245 40.9457 12.6646C41.2373 13.3046 41.3525 14.011 41.2792 14.7106C41.2172 15.3219 41.023 15.9124 40.7101 16.4413C40.3564 17.043 39.8491 17.54 39.2402 17.8813C38.6314 18.2226 37.9427 18.396 37.2448 18.3837H34.4905C34.9389 19.4356 35.6354 20.3633 36.5203 21.0875C37.7859 22.1285 39.3744 22.6965 41.0131 22.6939C42.6513 22.6967 44.2392 22.1287 45.504 21.0875C46.3163 20.4237 46.9708 19.5874 47.4199 18.6393C47.8691 17.6912 48.1017 16.6551 48.101 15.606C48.1004 13.7265 47.3535 11.9242 46.0243 10.5954C44.6951 9.2666 42.8926 8.52011 41.0131 8.52011V8.52011Z" stroke="#DD7E49" stroke-width="2" stroke-linecap="round" stroke-linejoin="round"/>
<path d="M29.6714 25.5765C29.4771 25.5765 29.2829 25.5978 29.0886 25.6095C28.9691 24.8113 28.577 24.0791 27.979 23.537C27.3811 22.995 26.614 22.6765 25.8079 22.6356C25.0477 22.593 24.2952 22.8071 23.6713 23.2436C23.2734 23.5142 22.9362 23.8647 22.681 24.2726C22.4259 24.6806 22.2584 25.1372 22.1892 25.6134C21.3679 25.4774 20.5249 25.637 19.8101 26.0637C19.0953 26.4905 18.5549 27.1568 18.285 27.9443C18.022 28.7457 18.0564 29.615 18.3816 30.3932C18.7069 31.1715 19.3014 31.8066 20.0564 32.1826C19.6778 32.8973 19.5629 33.7225 19.732 34.5135C19.8904 35.3152 20.3342 36.0323 20.981 36.5317C21.5227 36.9692 22.1875 37.2266 22.8826 37.2678C23.3894 37.3066 23.8985 37.2334 24.3738 37.0535C24.8491 36.8736 25.279 36.5913 25.6331 36.2267C26.1996 36.8032 26.9478 37.1664 27.7512 37.2549C28.5546 37.3434 29.364 37.1517 30.0424 36.7123C30.6606 36.3127 31.1323 35.723 31.3865 35.0321C31.5626 34.5702 31.638 34.0761 31.6079 33.5827C31.5777 33.0893 31.4427 32.608 31.2117 32.1709L31.3127 32.1166C31.7456 31.8882 32.1252 31.5707 32.4265 31.185C32.7278 30.7993 32.944 30.3542 33.0609 29.8789C33.1056 29.7099 33.1327 29.5351 33.1658 29.3642V28.7465C33.1553 28.7094 33.1469 28.6718 33.1405 28.6338C33.0401 27.7865 32.6306 27.006 31.9905 26.4419C31.3504 25.8777 30.5246 25.5696 29.6714 25.5765V25.5765Z" stroke="#DD7E49" stroke-width="2" stroke-linecap="round" stroke-linejoin="round"/>
<path d="M39.6204 11.0628L37.441 9.48358L28.1971 2.7706C27.5059 2.26971 26.6741 2 25.8205 2C24.9669 2 24.1352 2.26971 23.444 2.7706L14.033 9.59818L12.0207 11.0569C11.4447 11.4606 10.9871 12.011 10.6954 12.651C10.4037 13.291 10.2886 13.9975 10.3619 14.697C10.4229 15.3085 10.6172 15.8993 10.931 16.4277C11.2847 17.0295 11.792 17.5264 12.4008 17.8677C13.0097 18.209 13.6983 18.3824 14.3962 18.3701H16.2202C16.2202 18.2244 16.2105 18.0807 16.2105 17.935C16.2108 17.4269 16.2517 16.9196 16.3328 16.418C16.4755 15.5268 16.747 14.6612 17.1389 13.8482C17.9111 12.25 19.1185 10.9022 20.6225 9.95963C22.1265 9.0171 23.866 8.51815 25.6409 8.52014C27.4168 8.52029 29.1566 9.02191 30.66 9.96725C32.1634 10.9126 33.3693 12.2632 34.1389 13.8637C34.5308 14.6767 34.8024 15.5424 34.945 16.4335C35.0262 16.9351 35.0671 17.4424 35.0674 17.9506C35.0674 18.0962 35.0674 18.24 35.0577 18.3857H37.2468C37.9447 18.3979 38.6333 18.2245 39.2422 17.8832C39.8511 17.5419 40.3583 17.045 40.712 16.4432C41.025 15.9144 41.2192 15.3239 41.2812 14.7126C41.3561 14.0113 41.2415 13.3027 40.9494 12.6608C40.6573 12.0188 40.1983 11.467 39.6204 11.0628V11.0628Z" stroke="#DD7E49" stroke-width="2" stroke-linecap="round" stroke-linejoin="round"/>
<path d="M34.947 16.4335C34.8037 15.5422 34.5315 14.6766 34.1389 13.8637C33.3693 12.2632 32.1634 10.9126 30.66 9.96721C29.1566 9.02187 27.4168 8.52026 25.6409 8.52011C23.8643 8.51953 22.1237 9.0208 20.6195 9.96618C19.1153 10.9116 17.9088 12.2626 17.1389 13.8637C16.747 14.6767 16.4755 15.5423 16.3328 16.4335C16.2517 16.9351 16.2108 17.4424 16.2104 17.9505C16.2104 18.0962 16.2104 18.2399 16.2202 18.3856H35.0616C35.0616 18.2399 35.0713 18.0962 35.0713 17.9505C35.0703 17.4423 35.0287 16.9351 34.947 16.4335V16.4335Z" stroke="#DD7E49" stroke-width="2" stroke-linecap="round" stroke-linejoin="round"/>
<path d="M2.01923 44.6761H48.0991" stroke="#DD7E49" stroke-width="2" stroke-linecap="round" stroke-linejoin="round"/>
</svg>
