<svg width="50" height="50" viewBox="0 0 50 50" fill="none" xmlns="http://www.w3.org/2000/svg">
<path d="M18.891 15.3515C18.891 13.968 18.3414 12.6412 17.3631 11.6629C16.3848 10.6846 15.058 10.135 13.6745 10.135C12.291 10.135 10.9642 10.6846 9.98588 11.6629C9.0076 12.6412 8.45801 13.968 8.45801 15.3515C8.45729 16.1223 8.62811 16.8836 8.95808 17.5802H18.3927C18.7221 16.8834 18.8923 16.1222 18.891 15.3515V15.3515Z" stroke="#CB7404" stroke-width="2" stroke-linecap="round" stroke-linejoin="round"/>
<path d="M28.8272 39.5182C28.8272 40.0732 28.6068 40.6055 28.2146 40.9981C27.8223 41.3907 27.2902 41.6115 26.7352 41.612H18.6838C18.1295 41.6071 17.5987 41.3872 17.2034 40.9986C17.0091 40.8042 16.8551 40.5733 16.7502 40.3193C16.6452 40.0653 16.5914 39.793 16.5918 39.5182C16.592 39.17 16.6791 38.8274 16.8452 38.5214C17.0114 38.2154 17.2514 37.9558 17.5434 37.7662C15.9045 37.1796 14.3672 36.3409 12.987 35.2802C10.6342 36.6059 9.18262 38.4119 9.18262 40.4014C9.18262 44.4721 15.2391 47.7764 22.7095 47.7764C30.1799 47.7764 36.2364 44.4774 36.2364 40.4014C36.2364 38.4119 34.7848 36.6059 32.432 35.2802C31.0546 36.341 29.5204 37.1809 27.8846 37.7698C28.1748 37.9598 28.4129 38.2192 28.5775 38.5245C28.7421 38.8298 28.8279 39.1714 28.8272 39.5182Z" stroke="#CB7404" stroke-width="2" stroke-linecap="round" stroke-linejoin="round"/>
<path d="M16.5918 39.5181C16.5914 39.793 16.6452 40.0652 16.7502 40.3192C16.8551 40.5733 17.0091 40.8041 17.2034 40.9985C17.5987 41.3871 18.1295 41.607 18.6838 41.6119H26.7352C27.2902 41.6114 27.8223 41.3906 28.2145 40.998C28.6068 40.6054 28.8272 40.0731 28.8272 39.5181C28.8273 39.1708 28.7407 38.8289 28.5751 38.5236C28.4096 38.2183 28.1703 37.9591 27.8792 37.7697C26.2201 38.363 24.4715 38.6672 22.7095 38.6691C20.9487 38.667 19.2013 38.3628 17.5434 37.7697C17.2519 37.9591 17.0122 38.2181 16.8461 38.5234C16.6799 38.8287 16.5925 39.1706 16.5918 39.5181V39.5181Z" stroke="#CB7404" stroke-width="2" stroke-linecap="round" stroke-linejoin="round"/>
<path d="M42.5538 18.7981C41.7461 18.7973 40.9467 18.9613 40.2046 19.2802C40.3999 19.7992 40.4618 20.3589 40.3845 20.9081C40.0309 23.5878 39.2153 26.186 37.9741 28.5871C38.5331 29.2578 39.2329 29.7972 40.0237 30.1671C40.8146 30.5371 41.6771 30.7284 42.5502 30.7277C43.3336 30.7279 44.1093 30.5738 44.8331 30.2741C45.5569 29.9744 46.2146 29.5351 46.7685 28.9811C47.3224 28.4272 47.7618 27.7696 48.0615 27.0458C48.3611 26.322 48.5152 25.5463 48.515 24.7629C48.515 23.1815 47.8871 21.6649 46.7692 20.5464C45.6514 19.4279 44.1352 18.7991 42.5538 18.7981V18.7981ZM42.5538 27.4503C41.8414 27.4498 41.1583 27.1664 40.6547 26.6625C40.1511 26.1586 39.8682 25.4753 39.8682 24.7629C39.8687 24.0508 40.1518 23.3679 40.6554 22.8644C41.1589 22.3609 41.8417 22.0778 42.5538 22.0773C43.2663 22.0773 43.9495 22.3602 44.4535 22.8638C44.9574 23.3674 45.2407 24.0504 45.2412 24.7629C45.2412 25.4756 44.9581 26.1592 44.4541 26.6631C43.9501 27.1671 43.2666 27.4503 42.5538 27.4503Z" stroke="#CB7404" stroke-width="2" stroke-linecap="round" stroke-linejoin="round"/>
<path d="M40.2046 19.2801C39.8287 18.289 38.9941 17.5803 37.9921 17.5803H7.42713C5.92694 17.5803 4.79549 19.165 5.03113 20.908C5.84059 26.9286 8.8086 32.0983 12.9872 35.2803C14.3674 36.341 15.9047 37.1797 17.5435 37.7663C19.2014 38.3594 20.9488 38.6636 22.7096 38.6657C24.4716 38.6638 26.2202 38.3596 27.8793 37.7663C29.517 37.1779 31.053 36.338 32.4321 35.2767C34.7481 33.4783 36.6412 31.1935 37.9777 28.5834C39.219 26.1823 40.0345 23.5842 40.3881 20.9044C40.4637 20.3562 40.4006 19.7977 40.2046 19.2801V19.2801Z" stroke="#CB7404" stroke-width="2" stroke-linecap="round" stroke-linejoin="round"/>
<path d="M28.1421 26.2485C28.0687 25.6336 27.7713 25.0674 27.3067 24.6579C26.8422 24.2484 26.2431 24.0245 25.6238 24.0288C25.4817 24.0288 25.3414 24.045 25.2011 24.054C25.1155 23.4754 24.8322 22.9442 24.3994 22.5507C23.9665 22.1573 23.4109 21.9257 22.8267 21.8955C22.2763 21.8652 21.7316 22.0204 21.2797 22.3362C20.9903 22.5313 20.7448 22.7848 20.559 23.0803C20.3731 23.3758 20.251 23.7068 20.2005 24.0522C19.6053 23.9538 18.9945 24.0698 18.4767 24.3794C17.9589 24.689 17.5678 25.1722 17.3728 25.7431C17.1823 26.3235 17.2073 26.9532 17.4432 27.5167C17.679 28.0803 18.11 28.54 18.6571 28.8118C18.3814 29.3299 18.2979 29.9289 18.4215 30.5027C18.5347 31.0828 18.8542 31.6023 19.3209 31.9651C19.7127 32.2841 20.1944 32.4728 20.6987 32.5047C21.0658 32.5324 21.4345 32.4793 21.7789 32.3491C22.1233 32.2188 22.4349 32.0147 22.6918 31.751C23.1039 32.1732 23.6503 32.4387 24.2369 32.5017C24.8235 32.5647 25.4138 32.4214 25.9062 32.0964C26.3535 31.8069 26.695 31.3803 26.8794 30.8804C27.0069 30.5459 27.0616 30.1881 27.0399 29.8307C27.0182 29.4734 26.9205 29.1248 26.7535 28.8082L26.8272 28.7686C27.1393 28.6028 27.4129 28.3728 27.6299 28.0938C27.8469 27.8148 28.0024 27.4931 28.0864 27.1497C28.1187 27.0274 28.1385 26.9015 28.1619 26.7774V26.3295C28.1547 26.3025 28.1457 26.2755 28.1421 26.2485Z" stroke="#CB7404" stroke-width="2" stroke-linecap="round" stroke-linejoin="round"/>
</svg>
