<svg width="50" height="50" viewBox="0 0 50 50" fill="none" xmlns="http://www.w3.org/2000/svg">
<path d="M47.7191 20.9911C47.5344 19.428 46.9992 17.9267 46.1534 16.5993C45.3077 15.2718 44.1732 14.1523 42.8346 13.3243C42.8024 13.4515 42.7635 13.5769 42.7181 13.7C42.4787 14.3527 42.0328 14.9094 41.4482 15.2856C40.8081 15.7006 40.0444 15.8819 39.2862 15.7987C38.528 15.7155 37.8217 15.373 37.2869 14.8291C36.9528 15.1729 36.5473 15.4391 36.099 15.6089C35.6507 15.7787 35.1705 15.8479 34.6925 15.8117C34.0366 15.7725 33.4094 15.5295 32.8984 15.1166C32.2879 14.6449 31.8689 13.9682 31.7186 13.2116C31.558 12.4637 31.6671 11.6831 32.0267 11.0079C31.314 10.6538 30.7527 10.0548 30.4456 9.32065C30.1385 8.58645 30.1062 7.7662 30.3547 7.01014C30.6044 6.27998 31.1006 5.65958 31.758 5.25547C30.0282 3.8381 27.888 3.01535 25.6543 2.90902C23.3672 2.78448 21.1046 3.4315 19.2292 4.74635C18.9249 4.95927 18.6356 5.18095 18.3613 5.4114C18.723 5.67726 19.0264 6.01449 19.2525 6.40225C19.4787 6.79002 19.623 7.22006 19.6764 7.66579C19.6827 7.70125 19.6909 7.73636 19.7008 7.771V8.35338C19.6688 8.51683 19.6444 8.68027 19.6031 8.83995C19.493 9.28826 19.2893 9.70819 19.0053 10.0721C18.7214 10.4361 18.3636 10.7358 17.9555 10.9516L17.8616 11.0023C18.0794 11.4147 18.2067 11.8689 18.2349 12.3345C18.263 12.8 18.1915 13.2662 18.025 13.7019C17.786 14.3543 17.3408 14.911 16.7569 15.2875C16.1169 15.7025 15.3532 15.8838 14.595 15.8006C13.8367 15.7174 13.1305 15.3749 12.5957 14.831C12.2613 15.1749 11.8554 15.4412 11.4068 15.611C10.9582 15.7808 10.4777 15.8499 9.99938 15.8135C9.34367 15.7737 8.71663 15.5308 8.20526 15.1184C7.68929 14.7185 7.30887 14.1695 7.11564 13.546C5.20253 14.8345 3.76355 16.7136 3.01828 18.8964C1.41766 23.6814 3.52364 29.291 8.34992 31.6506C7.20723 33.8053 6.86129 36.2941 7.37301 38.6787C7.85006 41.0919 9.18477 43.2508 11.1303 44.7562C12.7615 46.0721 14.7625 46.8464 16.8546 46.9711C20.0746 47.174 22.8381 46.0919 25.132 43.8375C28.9983 47.7151 34.6342 47.809 38.4047 45.3029C40.2669 44.1006 41.6877 42.3257 42.4532 40.2455C43.5353 37.3129 43.3268 34.4367 41.9291 31.6337C42.0512 31.568 42.1414 31.521 42.2315 31.4703C44.9406 29.9674 46.699 27.7299 47.4918 24.7334C47.6252 24.2262 47.7022 23.702 47.8055 23.1854V21.3274C47.7705 21.217 47.7417 21.1047 47.7191 20.9911V20.9911Z" stroke="#855A31" stroke-width="2" stroke-linecap="round" stroke-linejoin="round"/>
<path d="M18.3613 5.41132C17.7961 4.99657 17.1122 4.7752 16.4112 4.78009C16.2234 4.78009 16.0355 4.80075 15.8627 4.81015C15.7493 4.05729 15.3791 3.36678 14.8148 2.85561C14.2506 2.34444 13.527 2.04405 12.7666 2.00531C12.0479 1.96383 11.3362 2.1664 10.7471 2.58018C10.3716 2.8355 10.0533 3.16607 9.81237 3.55092C9.57143 3.93577 9.41313 4.3665 9.34748 4.81578C8.57195 4.68779 7.77615 4.83899 7.1016 5.24248C6.42705 5.64597 5.91745 6.27562 5.66341 7.01945C5.41581 7.77555 5.44848 8.59549 5.75547 9.32949C6.06245 10.0635 6.62325 10.6626 7.33543 11.0172C6.97728 11.6929 6.86885 12.4732 7.0292 13.2209C7.05363 13.3355 7.08369 13.4445 7.11751 13.5534C7.31074 14.177 7.69116 14.726 8.20713 15.1259C8.7185 15.5382 9.34554 15.7812 10.0012 15.821C10.4796 15.8574 10.96 15.7882 11.4087 15.6184C11.8573 15.4487 12.2632 15.1824 12.5976 14.8384C13.1324 15.3823 13.8386 15.7248 14.5968 15.808C15.3551 15.8912 16.1188 15.71 16.7588 15.2949C17.3427 14.9184 17.7879 14.3618 18.0269 13.7094C18.1934 13.2737 18.2649 12.8075 18.2367 12.3419C18.2085 11.8763 18.0813 11.4221 17.8634 11.0097L17.9574 10.959C18.3657 10.743 18.7236 10.443 19.0076 10.0787C19.2915 9.71446 19.4951 9.29416 19.605 8.84551C19.6463 8.68582 19.6707 8.52238 19.7027 8.35894V7.77655C19.6927 7.74192 19.6846 7.70681 19.6782 7.67135C19.6254 7.22448 19.4812 6.79326 19.2546 6.40447C19.0281 6.01568 18.724 5.67763 18.3613 5.41132Z" stroke="#855A31" stroke-width="2" stroke-linecap="round" stroke-linejoin="round"/>
<path d="M44.3714 7.67118C44.2783 6.87089 43.893 6.13316 43.2894 5.59955C42.6857 5.06595 41.9063 4.77407 41.1006 4.77992C40.9128 4.77992 40.7343 4.80059 40.5502 4.80998C40.4374 4.05653 40.0671 3.36539 39.5024 2.85406C38.9376 2.34273 38.2132 2.04276 37.4523 2.00514C36.7362 1.96655 36.0278 2.16894 35.4402 2.58001C35.065 2.83558 34.7469 3.16622 34.506 3.55103C34.2651 3.93583 34.1066 4.36644 34.0406 4.81561C33.2518 4.68651 32.4428 4.84591 31.7618 5.26462C31.1044 5.66873 30.6082 6.28913 30.3585 7.01929C30.11 7.77535 30.1423 8.5956 30.4494 9.32979C30.7565 10.064 31.3178 10.663 32.0305 11.0171C31.6709 11.6922 31.5618 12.4728 31.7224 13.2207C31.8727 13.9774 32.2917 14.654 32.9022 15.1257C33.4132 15.5386 34.0405 15.7816 34.6963 15.8208C35.1743 15.8571 35.6544 15.7878 36.1028 15.6181C36.5511 15.4483 36.9566 15.1821 37.2907 14.8383C37.8255 15.3822 38.5318 15.7247 39.29 15.8078C40.0482 15.891 40.8119 15.7098 41.4519 15.2948C42.0366 14.9186 42.4825 14.3619 42.7219 13.7092C42.7673 13.5861 42.8062 13.4607 42.8384 13.3335C43.0309 12.5535 42.9306 11.73 42.5566 11.019L42.6505 10.9682C43.0588 10.7527 43.4168 10.4531 43.7008 10.0891C43.9848 9.72514 44.1884 9.30506 44.2981 8.85662C44.3395 8.69693 44.3639 8.53349 44.3977 8.37004V7.78766C44.3868 7.74935 44.378 7.71046 44.3714 7.67118V7.67118Z" stroke="#855A31" stroke-width="2" stroke-linecap="round" stroke-linejoin="round"/>
<path d="M25.1019 32.9391C27.4728 32.9391 29.3947 31.0172 29.3947 28.6464C29.3947 26.2756 27.4728 24.3537 25.1019 24.3537C22.7311 24.3537 20.8092 26.2756 20.8092 28.6464C20.8092 31.0172 22.7311 32.9391 25.1019 32.9391Z" stroke="#855A31" stroke-width="2" stroke-linecap="round" stroke-linejoin="round"/>
<path d="M14.6547 22.3756H19.7815" stroke="#855A31" stroke-width="2" stroke-linecap="round" stroke-linejoin="round"/>
<path d="M17.2191 19.8111V24.938" stroke="#855A31" stroke-width="2" stroke-linecap="round" stroke-linejoin="round"/>
<path d="M30.1912 22.3756H35.3181" stroke="#855A31" stroke-width="2" stroke-linecap="round" stroke-linejoin="round"/>
<path d="M32.7556 19.8111V24.938" stroke="#855A31" stroke-width="2" stroke-linecap="round" stroke-linejoin="round"/>
<path d="M17.7469 29.89C18.2279 33.5403 21.4554 36.2775 25.1846 36.2399C28.8517 36.1986 31.9797 33.4783 32.4512 29.89" stroke="#855A31" stroke-width="2" stroke-linecap="round" stroke-linejoin="round"/>
</svg>
