<svg width="50" height="50" viewBox="0 0 50 50" fill="none" xmlns="http://www.w3.org/2000/svg">
<path d="M13.0918 30.3185L25.3205 49" stroke="#148879" stroke-width="2" stroke-linecap="round" stroke-linejoin="round"/>
<path d="M25.3204 49L37.5511 30.3185" stroke="#148879" stroke-width="2" stroke-linecap="round" stroke-linejoin="round"/>
<path d="M25.3204 24.4492V48.9998" stroke="#148879" stroke-width="2" stroke-linecap="round" stroke-linejoin="round"/>
<path d="M21.2634 22.5776C20.2397 22.5157 19.2608 22.1361 18.4628 21.4919C17.5096 20.7546 16.8559 19.6969 16.6229 18.5146C16.3716 17.3475 16.5411 16.1291 17.1012 15.0748C15.9868 14.5231 15.1092 13.5876 14.6296 12.4403C14.1501 11.293 14.1009 10.0112 14.4911 8.8305C14.6609 8.33262 14.9066 7.86396 15.2195 7.4411C14.6302 7.16706 13.9931 7.01065 13.3439 6.98062C12.2245 6.91801 11.1166 7.23326 10.1979 7.87579C9.61181 8.27459 9.11506 8.79091 8.73919 9.39195C8.36333 9.99299 8.11656 10.6656 8.01455 11.3671C6.80315 11.1659 5.55965 11.4012 4.50554 12.0312C3.45142 12.6611 2.65513 13.6447 2.25848 14.8069C1.87016 15.9872 1.92075 17.268 2.40097 18.4141C2.88118 19.5601 3.75878 20.4944 4.87253 21.0453C4.31226 22.1002 4.14283 23.3193 4.39418 24.487C4.62707 25.6694 5.2808 26.7272 6.23414 27.4643C7.03228 28.108 8.01124 28.4868 9.03476 28.548C9.78151 28.605 10.5316 28.4971 11.232 28.2319C11.9324 27.9668 12.566 27.5509 13.0878 27.0137C13.9218 27.8643 15.0244 28.4002 16.2085 28.5305C17.3926 28.6607 18.5853 28.3773 19.5843 27.7283C20.4971 27.1398 21.1937 26.2703 21.5691 25.2512C21.8937 24.4021 21.9841 23.4815 21.8311 22.5855C21.6445 22.5915 21.456 22.5895 21.2634 22.5776ZM9.8565 18.3042C9.38162 18.3042 8.92602 18.1164 8.58912 17.7817C8.25222 17.447 8.06135 16.9927 8.05821 16.5178C8.05821 16.0409 8.24768 15.5835 8.58493 15.2463C8.92217 14.909 9.37956 14.7196 9.8565 14.7196C10.3334 14.7196 10.7908 14.909 11.1281 15.2463C11.4653 15.5835 11.6548 16.0409 11.6548 16.5178C11.6516 16.9927 11.4608 17.447 11.1239 17.7817C10.787 18.1164 10.3314 18.3042 9.8565 18.3042V18.3042Z" stroke="#148879" stroke-width="2" stroke-linecap="round" stroke-linejoin="round"/>
<path d="M11.4166 30.0982H14.769L13.0918 27.1964L11.4166 30.0982Z" stroke="#148879" stroke-width="2" stroke-linecap="round" stroke-linejoin="round"/>
<path d="M48.5174 15.8251C48.37 14.5783 47.7683 13.4294 46.8272 12.5983C45.8862 11.7671 44.6719 11.3118 43.4163 11.3195C43.1305 11.3195 42.8447 11.3533 42.5589 11.3692C42.3809 10.1944 41.8031 9.11711 40.9229 8.31904C40.0428 7.52097 38.9142 7.05104 37.7277 6.98858C36.9312 6.94724 36.1361 7.09483 35.4074 7.41929C35.9382 8.13646 36.274 8.97898 36.382 9.86463C36.3917 9.92016 36.4043 9.97515 36.4197 10.0294V10.9226C36.3701 11.1746 36.3304 11.4307 36.2669 11.6808C36.0941 12.3814 35.7748 13.0375 35.3301 13.6057C34.8853 14.174 34.3252 14.6416 33.6866 14.9776L33.5397 15.057C33.8795 15.7012 34.0781 16.4104 34.1222 17.1373C34.1664 17.8643 34.0551 18.5923 33.7957 19.2728C33.4204 20.292 32.7237 21.1614 31.8109 21.7499C30.8975 22.3456 29.817 22.6323 28.7284 22.5677C28.6201 23.2022 28.6329 23.8514 28.7661 24.4811C28.999 25.6634 29.6527 26.7212 30.6061 27.4584C31.4042 28.102 32.3832 28.4809 33.4067 28.5421C34.1534 28.599 34.9036 28.4911 35.604 28.226C36.3044 27.9609 36.9379 27.545 37.4598 27.0078C38.2938 27.8584 39.3964 28.3943 40.5805 28.5245C41.7646 28.6548 42.9573 28.3713 43.9562 27.7224C44.869 27.1338 45.5657 26.2644 45.941 25.2453C46.2 24.5649 46.311 23.8371 46.2665 23.1105C46.222 22.3839 46.0231 21.6751 45.683 21.0314L45.8319 20.952C46.4689 20.6147 47.0272 20.1463 47.4702 19.5778C47.9132 19.0092 48.2309 18.3533 48.4023 17.6532C48.4678 17.4031 48.5075 17.1471 48.5571 16.895V15.9899C48.5408 15.9357 48.5276 15.8807 48.5174 15.8251Z" stroke="#148879" stroke-width="2" stroke-linecap="round" stroke-linejoin="round"/>
<path d="M35.7905 30.0982H39.1429L37.4657 27.1964L35.7905 30.0982Z" stroke="#148879" stroke-width="2" stroke-linecap="round" stroke-linejoin="round"/>
<path d="M36.3742 9.85458C36.2661 8.96893 35.9304 8.1264 35.3996 7.40924C34.9223 6.76231 34.2987 6.23749 33.5798 5.87769C32.8609 5.51789 32.0671 5.33331 31.2632 5.33904C30.9773 5.33904 30.6915 5.3708 30.4057 5.38866C30.2299 4.21303 29.6527 3.13446 28.7721 2.33598C27.8915 1.53751 26.7617 1.06834 25.5746 1.00809C24.4545 0.944252 23.3455 1.2596 22.4266 1.90326C21.8409 2.30242 21.3444 2.81883 20.9685 3.41981C20.5927 4.02079 20.3457 4.69325 20.2433 5.39462C19.2991 5.23827 18.33 5.34654 17.4436 5.70741C16.5572 6.06828 15.7881 6.66764 15.2216 7.43901C14.9086 7.86187 14.6629 8.33053 14.4931 8.82841C14.1029 10.0091 14.1521 11.2909 14.6316 12.4382C15.1112 13.5855 15.9889 14.521 17.1032 15.0728C16.5408 16.1277 16.3699 17.3476 16.6209 18.5165C16.854 19.6988 17.5077 20.7565 18.4609 21.4938C19.2588 22.138 20.2378 22.5175 21.2615 22.5795C21.46 22.5914 21.6426 22.5934 21.8272 22.5795C23.1451 22.5349 24.3948 21.9823 25.3146 21.0372C26.2221 21.9552 27.4394 22.5016 28.7285 22.5695C29.8171 22.6341 30.8976 22.3475 31.811 21.7518C32.7238 21.1633 33.4205 20.2938 33.7958 19.2747C34.0552 18.5941 34.1664 17.8661 34.1223 17.1392C34.0781 16.4122 33.8796 15.703 33.5398 15.0589L33.6867 14.9795C34.3253 14.6434 34.8854 14.1759 35.3302 13.6076C35.7749 13.0393 36.0942 12.3833 36.267 11.6826C36.3305 11.4325 36.3702 11.1765 36.4198 10.9244V10.0193C36.4017 9.96524 36.3865 9.91025 36.3742 9.85458V9.85458ZM23.4508 11.4425C22.9738 11.4425 22.5165 11.253 22.1792 10.9158C21.842 10.5785 21.6525 10.1211 21.6525 9.64419C21.6525 9.16725 21.842 8.70985 22.1792 8.37261C22.5165 8.03537 22.9738 7.84591 23.4508 7.84591C23.9277 7.84591 24.3851 8.03537 24.7224 8.37261C25.0596 8.70985 25.249 9.16725 25.249 9.64419C25.2501 9.88101 25.2044 10.1157 25.1145 10.3348C25.0245 10.5539 24.8923 10.7531 24.7252 10.9209C24.5581 11.0887 24.3595 11.2219 24.1408 11.3128C23.9221 11.4036 23.6876 11.4504 23.4508 11.4504V11.4425Z" stroke="#148879" stroke-width="2" stroke-linecap="round" stroke-linejoin="round"/>
<path d="M23.6453 24.0404H26.9977L25.3205 21.1365L23.6453 24.0404Z" stroke="#148879" stroke-width="2" stroke-linecap="round" stroke-linejoin="round"/>
<path d="M23.4488 11.4505C24.442 11.4505 25.2471 10.6454 25.2471 9.65225C25.2471 8.65909 24.442 7.85397 23.4488 7.85397C22.4556 7.85397 21.6505 8.65909 21.6505 9.65225C21.6505 10.6454 22.4556 11.4505 23.4488 11.4505Z" stroke="#148879" stroke-width="2" stroke-linecap="round" stroke-linejoin="round"/>
<path d="M9.8565 18.306C10.8497 18.306 11.6548 17.5009 11.6548 16.5077C11.6548 15.5146 10.8497 14.7094 9.8565 14.7094C8.86334 14.7094 8.05823 15.5146 8.05823 16.5077C8.05823 17.5009 8.86334 18.306 9.8565 18.306Z" stroke="#148879" stroke-width="2" stroke-linecap="round" stroke-linejoin="round"/>
</svg>
