<svg width="50" height="50" viewBox="0 0 50 50" fill="none" xmlns="http://www.w3.org/2000/svg">
<path d="M10.0232 18.6973C10.3495 17.2354 10.8836 15.8277 11.6093 14.5173" stroke="#1687B8" stroke-width="2" stroke-linecap="round" stroke-linejoin="round"/>
<path d="M11.5219 29.6103C10.841 28.345 10.3367 26.9924 10.0232 25.5902" stroke="#1687B8" stroke-width="2" stroke-linecap="round" stroke-linejoin="round"/>
<path d="M22.1671 37.5871C19.8694 37.104 17.7091 36.1121 15.845 34.6846" stroke="#1687B8" stroke-width="2" stroke-linecap="round" stroke-linejoin="round"/>
<path d="M35.0027 34.6846C33.2018 36.0648 31.1229 37.038 28.9094 37.5369" stroke="#1687B8" stroke-width="2" stroke-linecap="round" stroke-linejoin="round"/>
<path d="M40.8376 25.5827C40.5392 26.9231 40.0659 28.2184 39.4301 29.4355" stroke="#1687B8" stroke-width="2" stroke-linecap="round" stroke-linejoin="round"/>
<path d="M39.1641 14.363C39.9142 15.6848 40.4686 17.1085 40.8097 18.5895" stroke="#1687B8" stroke-width="2" stroke-linecap="round" stroke-linejoin="round"/>
<path d="M29.1976 6.82104C31.1405 7.29944 32.9744 8.14382 34.6011 9.30896" stroke="#1687B8" stroke-width="2" stroke-linecap="round" stroke-linejoin="round"/>
<path d="M16.1946 9.3425C17.9478 8.07618 19.9438 7.18608 22.0574 6.72815" stroke="#1687B8" stroke-width="2" stroke-linecap="round" stroke-linejoin="round"/>
<path d="M30.6777 22.1467H41.202" stroke="#1687B8" stroke-width="2" stroke-linecap="round" stroke-linejoin="round"/>
<path d="M13.1823 22.1467H20.1552" stroke="#1687B8" stroke-width="2" stroke-linecap="round" stroke-linejoin="round"/>
<path d="M25.4229 16.8378V9.90399" stroke="#1687B8" stroke-width="2" stroke-linecap="round" stroke-linejoin="round"/>
<path d="M25.4229 34.3481V26.6259" stroke="#1687B8" stroke-width="2" stroke-linecap="round" stroke-linejoin="round"/>
<path d="M28.6397 18.9298L34.7702 12.7993" stroke="#1687B8" stroke-width="2" stroke-linecap="round" stroke-linejoin="round"/>
<path d="M16.3824 31.1871L21.3749 26.1964" stroke="#1687B8" stroke-width="2" stroke-linecap="round" stroke-linejoin="round"/>
<path d="M22.2899 19.0134L16.1222 12.8457" stroke="#1687B8" stroke-width="2" stroke-linecap="round" stroke-linejoin="round"/>
<path d="M34.5937 31.3154L29.3073 26.0309" stroke="#1687B8" stroke-width="2" stroke-linecap="round" stroke-linejoin="round"/>
<path d="M40.7093 45.3689H10.1385C9.42371 45.3689 8.8443 45.9483 8.8443 46.6631V46.7058C8.8443 47.4206 9.42371 48 10.1385 48H40.7093C41.424 48 42.0035 47.4206 42.0035 46.7058V46.6631C42.0035 45.9483 41.424 45.3689 40.7093 45.3689Z" stroke="#1687B8" stroke-width="2" stroke-linecap="round" stroke-linejoin="round"/>
<path d="M23.6285 27.3269L15.0305 45.369" stroke="#1687B8" stroke-width="2" stroke-linecap="round" stroke-linejoin="round"/>
<path d="M27.1746 27.234L35.8153 45.369" stroke="#1687B8" stroke-width="2" stroke-linecap="round" stroke-linejoin="round"/>
<path d="M9.64568 25.514C11.5055 25.514 13.0131 24.0063 13.0131 22.1465C13.0131 20.2868 11.5055 18.7791 9.64568 18.7791C7.7859 18.7791 6.27826 20.2868 6.27826 22.1465C6.27826 24.0063 7.7859 25.514 9.64568 25.514Z" stroke="#1687B8" stroke-width="2" stroke-linecap="round" stroke-linejoin="round"/>
<path d="M6.27643 22.1467H12.7602" stroke="#1687B8" stroke-width="2" stroke-linecap="round" stroke-linejoin="round"/>
<path d="M41.2021 25.514C43.0619 25.514 44.5695 24.0063 44.5695 22.1465C44.5695 20.2868 43.0619 18.7791 41.2021 18.7791C39.3423 18.7791 37.8347 20.2868 37.8347 22.1465C37.8347 24.0063 39.3423 25.514 41.2021 25.514Z" stroke="#1687B8" stroke-width="2" stroke-linecap="round" stroke-linejoin="round"/>
<path d="M37.8347 22.1467H44.3166" stroke="#1687B8" stroke-width="2" stroke-linecap="round" stroke-linejoin="round"/>
<path d="M25.423 41.2931C27.2827 41.2931 28.7904 39.7854 28.7904 37.9257C28.7904 36.0659 27.2827 34.5582 25.423 34.5582C23.5632 34.5582 22.0555 36.0659 22.0555 37.9257C22.0555 39.7854 23.5632 41.2931 25.423 41.2931Z" stroke="#1687B8" stroke-width="2" stroke-linecap="round" stroke-linejoin="round"/>
<path d="M22.0555 37.9257H28.5375" stroke="#1687B8" stroke-width="2" stroke-linecap="round" stroke-linejoin="round"/>
<path d="M25.423 9.73485C27.2827 9.73485 28.7904 8.2272 28.7904 6.36742C28.7904 4.50765 27.2827 3 25.423 3C23.5632 3 22.0555 4.50765 22.0555 6.36742C22.0555 8.2272 23.5632 9.73485 25.423 9.73485Z" stroke="#1687B8" stroke-width="2" stroke-linecap="round" stroke-linejoin="round"/>
<path d="M22.0555 6.36743H28.5375" stroke="#1687B8" stroke-width="2" stroke-linecap="round" stroke-linejoin="round"/>
<path d="M39.0748 14.2272C38.6447 14.4189 38.179 14.5178 37.7082 14.5172C36.8146 14.5172 35.9576 14.1623 35.3257 13.5304C34.6938 12.8985 34.3389 12.0415 34.3389 11.1479C34.3382 10.5519 34.4968 9.96643 34.7981 9.45215" stroke="#1687B8" stroke-width="2" stroke-linecap="round" stroke-linejoin="round"/>
<path d="M34.7981 9.45229C35.0941 8.94295 35.5187 8.52029 36.0294 8.2266C36.5401 7.93291 37.119 7.77849 37.7081 7.77881C38.1503 7.77881 38.5882 7.86591 38.9967 8.03514C39.4053 8.20437 39.7765 8.45241 40.0892 8.7651C40.4019 9.0778 40.65 9.44902 40.8192 9.85758C40.9884 10.2661 41.0755 10.704 41.0755 11.1462C41.0758 11.7981 40.8869 12.436 40.5318 12.9826C40.1766 13.5291 39.6705 13.9609 39.0748 14.2254" stroke="#1687B8" stroke-width="2" stroke-linecap="round" stroke-linejoin="round"/>
<path d="M34.3389 11.15H40.8208" stroke="#1687B8" stroke-width="2" stroke-linecap="round" stroke-linejoin="round"/>
<path d="M13.0781 14.5172C14.9379 14.5172 16.4455 13.0095 16.4455 11.1498C16.4455 9.29 14.9379 7.78235 13.0781 7.78235C11.2183 7.78235 9.71069 9.29 9.71069 11.1498C9.71069 13.0095 11.2183 14.5172 13.0781 14.5172Z" stroke="#1687B8" stroke-width="2" stroke-linecap="round" stroke-linejoin="round"/>
<path d="M9.71069 11.15H16.1927" stroke="#1687B8" stroke-width="2" stroke-linecap="round" stroke-linejoin="round"/>
<path d="M37.7063 35.9694C39.5661 35.9694 41.0737 34.4618 41.0737 32.602C41.0737 30.7422 39.5661 29.2346 37.7063 29.2346C35.8465 29.2346 34.3389 30.7422 34.3389 32.602C34.3389 34.4618 35.8465 35.9694 37.7063 35.9694Z" stroke="#1687B8" stroke-width="2" stroke-linecap="round" stroke-linejoin="round"/>
<path d="M34.3389 32.6021H40.8208" stroke="#1687B8" stroke-width="2" stroke-linecap="round" stroke-linejoin="round"/>
<path d="M13.0781 35.9694C14.9379 35.9694 16.4455 34.4618 16.4455 32.602C16.4455 30.7422 14.9379 29.2346 13.0781 29.2346C11.2183 29.2346 9.71069 30.7422 9.71069 32.602C9.71069 34.4618 11.2183 35.9694 13.0781 35.9694Z" stroke="#1687B8" stroke-width="2" stroke-linecap="round" stroke-linejoin="round"/>
<path d="M9.71069 32.6021H16.1927" stroke="#1687B8" stroke-width="2" stroke-linecap="round" stroke-linejoin="round"/>
<path d="M30.5066 21.2299C30.4377 20.6393 30.1526 20.0951 29.7062 19.7023C29.2599 19.3095 28.6839 19.0959 28.0893 19.1027C27.9536 19.1027 27.8197 19.1176 27.6858 19.125C27.6028 18.5706 27.3303 18.0621 26.9147 17.6858C26.4991 17.3095 25.9661 17.0888 25.4062 17.061C24.8769 17.0295 24.3525 17.1783 23.9186 17.4831C23.6424 17.671 23.4083 17.9144 23.2313 18.1977C23.0542 18.481 22.9381 18.7981 22.8904 19.1287C22.3197 19.0343 21.734 19.1455 21.2376 19.4424C20.7412 19.7393 20.3662 20.2027 20.1793 20.7501C19.9965 21.3063 20.0201 21.9097 20.2458 22.45C20.4715 22.9902 20.8842 23.431 21.4084 23.6918C21.1453 24.1897 21.0657 24.7643 21.1834 25.315C21.2942 25.8714 21.6018 26.3692 22.0499 26.717C22.4271 27.0201 22.889 27.1988 23.372 27.2284C23.7238 27.2554 24.0774 27.2046 24.4074 27.0795C24.7374 26.9545 25.0359 26.7584 25.2816 26.5051C25.6753 26.9052 26.195 27.1572 26.7529 27.2185C27.3109 27.2798 27.8729 27.1467 28.3441 26.8416C28.7721 26.5631 29.0983 26.1534 29.2738 25.6739C29.3957 25.3533 29.448 25.0104 29.4271 24.668C29.4063 24.3256 29.3128 23.9915 29.1529 23.688L29.2217 23.649C29.5223 23.4904 29.7857 23.2698 29.9947 23.0018C30.2037 22.7339 30.3534 22.4246 30.4341 22.0945C30.4657 21.9774 30.4824 21.8565 30.5066 21.7375V21.308C30.5196 21.2819 30.5103 21.2578 30.5066 21.2299Z" stroke="#1687B8" stroke-width="2" stroke-linecap="round" stroke-linejoin="round"/>
</svg>
