<svg width="35" height="35" viewBox="0 0 35 35" fill="none" xmlns="http://www.w3.org/2000/svg">
<circle cx="17.5" cy="17.5" r="17.5" fill="#5EB791"/>
<path fill-rule="evenodd" clip-rule="evenodd" d="M23.4831 25.7901L23.4838 25.7883L23.5011 25.7448L26.4999 10.6258V10.5767C26.4999 10.2 26.3608 9.8711 26.0579 9.67384C25.7928 9.50118 25.488 9.48889 25.2743 9.50511C25.0483 9.52226 24.8352 9.57868 24.6876 9.62564C24.6117 9.6498 24.5482 9.67307 24.5028 9.69068C24.48 9.69952 24.4615 9.70702 24.448 9.7126L24.4348 9.71816L7.71502 16.2771L7.71042 16.2787C7.70139 16.282 7.68944 16.2865 7.67502 16.2921C7.64627 16.3033 7.60713 16.3193 7.56115 16.3402C7.47087 16.3811 7.34613 16.4442 7.21963 16.5308C7.00477 16.678 6.59566 17.0263 6.66474 17.5785C6.72196 18.0359 7.03727 18.3264 7.24983 18.4768C7.36378 18.5575 7.4728 18.6156 7.55262 18.6536C7.59307 18.6729 7.62743 18.6876 7.65302 18.698C7.66585 18.7032 7.67657 18.7074 7.68487 18.7106L7.6955 18.7145L7.70229 18.7171L10.6275 19.7019C10.6177 19.8854 10.6359 20.0725 10.6845 20.2572L12.1498 25.8156C12.3236 26.4746 12.9198 26.9337 13.6013 26.9332C14.2123 26.9328 14.7541 26.5632 14.9843 26.0118L17.272 23.5657L21.2009 26.5779L21.2568 26.6023C21.6138 26.7581 21.9473 26.8074 22.2522 26.7658C22.5567 26.7242 22.7987 26.5965 22.9804 26.4511C23.1593 26.308 23.2819 26.1465 23.359 26.0249C23.3981 25.9631 23.4273 25.9088 23.4476 25.8679C23.4578 25.8474 23.4658 25.8301 23.4718 25.8165L23.4793 25.7991L23.482 25.7927L23.4831 25.7901ZM12.1349 19.8748C12.1016 19.7485 12.1539 19.6151 12.2642 19.5451L22.1862 13.2442C22.1862 13.2442 22.7698 12.8899 22.7489 13.2442C22.7489 13.2442 22.8531 13.3067 22.5404 13.5985C22.2438 13.8755 15.4687 20.4166 14.7832 21.0785C14.7436 21.1167 14.72 21.1605 14.706 21.2137L13.6002 25.4332L12.1349 19.8748Z" fill="white"/>
</svg>
