<svg width="35" height="35" viewBox="0 0 35 35" fill="none" xmlns="http://www.w3.org/2000/svg">
<circle cx="17.5" cy="17.5" r="17.5" fill="black" fill-opacity="0.3"/>
<path d="M16.1236 12.0216C16.5742 11.5591 16.5742 10.8093 16.1236 10.3468C15.673 9.88438 14.9424 9.88438 14.4918 10.3468L8.33795 16.6626C8.11265 16.8939 8 17.1969 8 17.5C8 17.6606 8.03114 17.8137 8.08755 17.9533C8.14386 18.093 8.22733 18.2238 8.33795 18.3374L14.4918 24.6532C14.9424 25.1156 15.673 25.1156 16.1236 24.6532C16.5742 24.1907 16.5742 23.4409 16.1236 22.9784L11.9395 18.6842H26.8462C27.4834 18.6842 28 18.154 28 17.5C28 16.846 27.4834 16.3158 26.8462 16.3158H11.9395L16.1236 12.0216Z" fill="white"/>
</svg>
