<svg width="25" height="25" viewBox="0 0 25 25" fill="none" xmlns="http://www.w3.org/2000/svg">
<circle cx="12.5" cy="12.5" r="12.5" fill="black" fill-opacity="0.1"/>
<path fill-rule="evenodd" clip-rule="evenodd" d="M12.5 6.24958C10.5113 6.24958 8.83153 7.95508 8.83153 10.1445C8.83153 11.8319 8.43226 13.4916 8.04607 14.7087C7.94043 15.0416 7.83475 15.3445 7.73673 15.6095H17.2633C17.1653 15.3445 17.0596 15.0416 16.9539 14.7087C16.5678 13.4916 16.1685 11.8319 16.1685 10.1445C16.1685 7.95508 14.4887 6.24958 12.5 6.24958ZM19.2145 16.0746C19.3346 16.3271 19.3169 16.6236 19.1675 16.86C19.0182 17.0965 18.758 17.2399 18.4783 17.2399H15.5569C15.5414 18.9394 14.2156 20.38 12.5 20.38C10.7844 20.38 9.45862 18.9394 9.44308 17.2399H6.52175C6.24202 17.2399 5.98184 17.0965 5.83247 16.86C5.6832 16.6236 5.66546 16.3273 5.78544 16.0748C5.78545 16.0748 5.78545 16.0748 5.78546 16.0748L5.78554 16.0746C5.78558 16.0745 5.78561 16.0744 5.78565 16.0743L5.78567 16.0743L5.78779 16.0698L5.79809 16.0476C5.80755 16.0271 5.82208 15.9952 5.84095 15.9527C5.87872 15.8677 5.9338 15.7404 6.00045 15.5771C6.13392 15.2499 6.3129 14.78 6.49199 14.2156C6.85308 13.0776 7.20109 11.5972 7.20109 10.1445C7.20109 7.13125 9.53611 4.61914 12.5 4.61914C15.4639 4.61914 17.7989 7.13125 17.7989 10.1445C17.7989 11.5972 18.1469 13.0776 18.508 14.2156C18.6871 14.78 18.8661 15.2499 18.9996 15.5771C19.0662 15.7404 19.1213 15.8677 19.1591 15.9527C19.1779 15.9952 19.1925 16.0271 19.2019 16.0476L19.2122 16.0698L19.2143 16.0743L19.2144 16.0743C19.2144 16.0744 19.2144 16.0745 19.2145 16.0746ZM11.0736 17.2399C11.0887 18.1132 11.758 18.7496 12.5 18.7496C13.242 18.7496 13.9113 18.1132 13.9264 17.2399H11.0736Z" fill="black" fill-opacity="0.6"/>
</svg>
