<svg width="23" height="23" viewBox="0 0 23 23" fill="none" xmlns="http://www.w3.org/2000/svg">
<circle cx="11.5" cy="11.5" r="11.5" fill="black" fill-opacity="0.1"/>
<path d="M7.22849 10.6785C6.59336 10.6785 6.07849 11.1934 6.07849 11.8285C6.07849 12.4637 6.59336 12.9785 7.22849 12.9785C7.86362 12.9785 8.37849 12.4637 8.37849 11.8285C8.37849 11.1934 7.86362 10.6785 7.22849 10.6785Z" fill="black" fill-opacity="0.6"/>
<path d="M10.6785 11.8285C10.6785 11.1934 11.1934 10.6785 11.8285 10.6785C12.4636 10.6785 12.9785 11.1934 12.9785 11.8285C12.9785 12.4637 12.4636 12.9785 11.8285 12.9785C11.1934 12.9785 10.6785 12.4637 10.6785 11.8285Z" fill="black" fill-opacity="0.6"/>
<path d="M15.2785 11.8285C15.2785 11.1934 15.7934 10.6785 16.4285 10.6785C17.0636 10.6785 17.5785 11.1934 17.5785 11.8285C17.5785 12.4637 17.0636 12.9785 16.4285 12.9785C15.7934 12.9785 15.2785 12.4637 15.2785 11.8285Z" fill="black" fill-opacity="0.6"/>
</svg>
