<svg width="30" height="30" viewBox="0 0 30 30" fill="none" xmlns="http://www.w3.org/2000/svg">
<circle cx="15" cy="15" r="15" fill="#7CE495" fill-opacity="0.2"/>
<path d="M18.7891 12.7808L15.6036 8.28767C15.4655 8.09589 15.2327 8 15 8C14.7673 8 14.5345 8.09589 14.3964 8.29452L11.2109 12.7808H7.72727C7.32727 12.7808 7 13.089 7 13.4658C7 13.5274 7.00727 13.589 7.02909 13.6507L8.87636 20C9.04364 20.5753 9.60364 21 10.2727 21H19.7273C20.3964 21 20.9564 20.5753 21.1309 20L22.9782 13.6507L23 13.4658C23 13.089 22.6727 12.7808 22.2727 12.7808H18.7891ZM12.8182 12.7808L15 9.76712L17.1818 12.7808H12.8182ZM15 18.2603C14.2 18.2603 13.5455 17.6438 13.5455 16.8904C13.5455 16.137 14.2 15.5205 15 15.5205C15.8 15.5205 16.4545 16.137 16.4545 16.8904C16.4545 17.6438 15.8 18.2603 15 18.2603Z" fill="#7CE495"/>
</svg>
