<svg width="20" height="20" viewBox="0 0 20 20" fill="none" xmlns="http://www.w3.org/2000/svg">
<circle cx="10" cy="10" r="10" fill="black" fill-opacity="0.2"/>
<path d="M14.1746 6.91463C14.4753 6.61391 14.4753 6.12635 14.1746 5.82563C13.8738 5.52492 13.3863 5.52492 13.0856 5.82563L10.0001 8.9111L6.91463 5.82564C6.61392 5.52492 6.12636 5.52492 5.82564 5.82564C5.52493 6.12635 5.52493 6.61391 5.82564 6.91463L8.91111 10.0001L5.82563 13.0856C5.52492 13.3863 5.52492 13.8738 5.82563 14.1746C6.12635 14.4753 6.61391 14.4753 6.91462 14.1746L10.0001 11.0891L13.0856 14.1746C13.3863 14.4753 13.8738 14.4753 14.1746 14.1746C14.4753 13.8738 14.4753 13.3863 14.1746 13.0856L11.0891 10.0001L14.1746 6.91463Z" fill="white"/>
</svg>
