<svg width="17" height="15" viewBox="0 0 17 15" fill="none" xmlns="http://www.w3.org/2000/svg">
<path fill-rule="evenodd" clip-rule="evenodd" d="M0.114746 5.0298C0.114746 2.3293 2.38517 0.25 5.05016 0.25C6.42391 0.25 7.63272 0.922139 8.50016 1.79183C9.36761 0.922139 10.5764 0.25 11.9502 0.25C14.6151 0.25 16.8856 2.3293 16.8856 5.0298C16.8856 6.87967 16.1296 8.50644 15.0822 9.88154C14.0366 11.2543 12.6689 12.4193 11.3593 13.366C10.8591 13.7276 10.3531 14.0611 9.89001 14.3072C9.45515 14.5383 8.95513 14.75 8.50016 14.75C8.0452 14.75 7.54518 14.5383 7.11032 14.3072C6.64721 14.0611 6.14119 13.7276 5.64101 13.366C4.33146 12.4193 2.96375 11.2543 1.91816 9.88154C0.870757 8.50644 0.114746 6.87967 0.114746 5.0298ZM5.05016 1.75C3.05755 1.75 1.55225 3.2791 1.55225 5.0298C1.55225 6.43329 2.12321 7.74 3.0435 8.94822C3.9656 10.1588 5.2063 11.2269 6.45962 12.133C6.93388 12.4758 7.38058 12.7675 7.76268 12.9706C8.17303 13.1886 8.41072 13.25 8.50016 13.25C8.58961 13.25 8.82729 13.1886 9.23765 12.9706C9.61974 12.7675 10.0664 12.4758 10.5407 12.133C11.794 11.2269 13.0347 10.1588 13.9568 8.94822C14.8771 7.74 15.4481 6.43329 15.4481 5.0298C15.4481 3.2791 13.9428 1.75 11.9502 1.75C10.8058 1.75 9.73717 2.46342 9.06995 3.36892C8.9339 3.55356 8.72337 3.66176 8.50016 3.66176C8.27696 3.66176 8.06642 3.55356 7.93037 3.36892C7.26315 2.46342 6.19456 1.75 5.05016 1.75Z" fill="white"/>
</svg>
