<svg width="17" height="15" viewBox="0 0 17 15" fill="none" xmlns="http://www.w3.org/2000/svg">
<path d="M5.14016 0.666626C2.5447 0.666626 0.333496 2.67423 0.333496 5.2816C0.333496 7.08032 1.14769 8.59467 2.22675 9.84911C3.30211 11.0992 4.6895 12.1486 5.94374 13.0268L8.10778 14.5422C8.34477 14.7081 8.65555 14.7081 8.89255 14.5422L11.0566 13.0268C12.3108 12.1486 13.6982 11.0992 14.7736 9.84911C15.8526 8.59467 16.6668 7.08032 16.6668 5.2816C16.6668 2.67423 14.4556 0.666626 11.8602 0.666626C10.5223 0.666626 9.34498 1.31559 8.50016 2.15529C7.65535 1.31559 6.47807 0.666626 5.14016 0.666626Z" fill="white"/>
</svg>
