<svg width="30" height="30" viewBox="0 0 30 30" fill="none" xmlns="http://www.w3.org/2000/svg">
<circle cx="15" cy="15" r="15" fill="#FFA0A0" fill-opacity="0.2"/>
<path d="M12.12 10C9.89531 10 8 11.7208 8 13.9557C8 15.4974 8.69788 16.7955 9.62279 17.8707C10.5445 18.9422 11.7337 19.8417 12.8088 20.5945L14.6637 21.8933C14.8668 22.0356 15.1332 22.0356 15.3363 21.8933L17.1912 20.5945C18.2663 19.8417 19.4555 18.9422 20.3772 17.8707C21.3021 16.7955 22 15.4974 22 13.9557C22 11.7208 20.1047 10 17.88 10C16.7332 10 15.7241 10.5563 15 11.276C14.2759 10.5563 13.2668 10 12.12 10Z" fill="#FFA0A0"/>
</svg>
