<svg width="18" height="18" viewBox="0 0 18 18" fill="none" xmlns="http://www.w3.org/2000/svg">
<path fill-rule="evenodd" clip-rule="evenodd" d="M11.3419 12.4392C8.60017 14.6351 4.58684 14.4623 2.04526 11.9207C-0.681755 9.19366 -0.681755 4.77228 2.04526 2.04527C4.77228 -0.681755 9.19365 -0.681755 11.9207 2.04527C14.4622 4.58684 14.6351 8.60016 12.4392 11.3419L17.7727 16.6755C18.0758 16.9785 18.0758 17.4697 17.7727 17.7727C17.4697 18.0758 16.9785 18.0758 16.6755 17.7727L11.3419 12.4392ZM3.14253 10.8234C1.02152 8.70239 1.02152 5.26355 3.14253 3.14253C5.26355 1.02152 8.70239 1.02152 10.8234 3.14253C12.9429 5.26199 12.9444 8.69735 10.8281 10.8187C10.8265 10.8203 10.8249 10.8218 10.8234 10.8234C10.8218 10.8249 10.8203 10.8265 10.8187 10.8281C8.69735 12.9444 5.26199 12.9429 3.14253 10.8234Z" fill="black" fill-opacity="0.6"/>
</svg>
