<svg width="155" height="89" viewBox="0 0 155 89" fill="none" xmlns="http://www.w3.org/2000/svg">
<g filter="url(#filter0_d)">
<rect x="5" y="2" width="145" height="78.5417" rx="10" fill="black" fill-opacity="0.45"/>
<path d="M79.875 29.5416C79.875 30.8533 78.8117 31.9166 77.5 31.9166V33.4166C79.6401 33.4166 81.375 31.6817 81.375 29.5416H79.875ZM77.5 31.9166C76.1883 31.9166 75.125 30.8533 75.125 29.5416H73.625C73.625 31.6817 75.3599 33.4166 77.5 33.4166V31.9166ZM75.125 29.5416C75.125 28.2299 76.1883 27.1666 77.5 27.1666V25.6666C75.3599 25.6666 73.625 27.4015 73.625 29.5416H75.125ZM77.5 27.1666C78.8117 27.1666 79.875 28.2299 79.875 29.5416H81.375C81.375 27.4015 79.6401 25.6666 77.5 25.6666V27.1666ZM86.125 25.3749V33.7083H87.625V25.3749H86.125ZM84.7917 35.0416H70.2083V36.5416H84.7917V35.0416ZM68.875 33.7083V25.3749H67.375V33.7083H68.875ZM70.2083 24.0416H72.8125V22.5416H70.2083V24.0416ZM82.1875 24.0416H84.7917V22.5416H82.1875V24.0416ZM74.8958 21.9583H80.1042V20.4583H74.8958V21.9583ZM80.3958 22.2499C80.3958 23.2394 81.198 24.0416 82.1875 24.0416V22.5416C82.0264 22.5416 81.8958 22.411 81.8958 22.2499H80.3958ZM72.8125 24.0416C73.802 24.0416 74.6042 23.2394 74.6042 22.2499H73.1042C73.1042 22.411 72.9736 22.5416 72.8125 22.5416V24.0416ZM81.8958 22.2499C81.8958 21.2604 81.0937 20.4583 80.1042 20.4583V21.9583C80.2652 21.9583 80.3958 22.0888 80.3958 22.2499H81.8958ZM74.6042 22.2499C74.6042 22.0888 74.7348 21.9583 74.8958 21.9583V20.4583C73.9063 20.4583 73.1042 21.2604 73.1042 22.2499H74.6042ZM70.2083 35.0416C69.472 35.0416 68.875 34.4446 68.875 33.7083H67.375C67.375 35.2731 68.6435 36.5416 70.2083 36.5416V35.0416ZM86.125 33.7083C86.125 34.4446 85.528 35.0416 84.7917 35.0416V36.5416C86.3565 36.5416 87.625 35.2731 87.625 33.7083H86.125ZM87.625 25.3749C87.625 23.8101 86.3565 22.5416 84.7917 22.5416V24.0416C85.528 24.0416 86.125 24.6385 86.125 25.3749H87.625ZM68.875 25.3749C68.875 24.6385 69.472 24.0416 70.2083 24.0416V22.5416C68.6435 22.5416 67.375 23.8101 67.375 25.3749H68.875Z" fill="white"/>
<path d="M28.945 49.454H25.29V47.873H23.539V49.454H19.884V50.848H28.945V49.454ZM22.366 54.316C22.366 53.398 23.182 52.854 24.406 52.854C25.63 52.854 26.463 53.398 26.463 54.316C26.463 55.217 25.63 55.761 24.406 55.761C23.182 55.761 22.366 55.217 22.366 54.316ZM28.129 54.316C28.129 52.633 26.616 51.511 24.406 51.511C22.196 51.511 20.683 52.633 20.683 54.316C20.683 55.982 22.196 57.104 24.406 57.104C26.616 57.104 28.129 55.982 28.129 54.316ZM21.754 59.722H30.101V63.309H31.852V58.311H21.754V59.722ZM34.028 52.072H31.852V47.958H30.101V57.563H31.852V53.517H34.028V52.072ZM45.2127 53.33H46.8277V57.393H48.4937V47.975H46.8277V51.902H45.2127V48.247H43.5637V56.9H45.2127V53.33ZM43.2067 54.996C41.2177 54.214 40.2147 52.531 40.2147 50.831V48.893H38.5147V50.831C38.5147 52.582 37.4777 54.503 35.4207 55.438L36.3387 56.781C37.8177 56.135 38.8207 54.945 39.3817 53.534C39.9597 54.758 40.9117 55.778 42.2717 56.305L43.2067 54.996ZM43.3767 61.966C41.2177 61.966 39.9257 61.439 39.9257 60.504C39.9257 59.552 41.2177 59.025 43.3767 59.025C45.5357 59.025 46.8277 59.552 46.8277 60.504C46.8277 61.439 45.5357 61.966 43.3767 61.966ZM43.3767 57.682C40.1807 57.682 38.1747 58.736 38.1747 60.504C38.1747 62.255 40.1807 63.309 43.3767 63.309C46.5727 63.309 48.5787 62.255 48.5787 60.504C48.5787 58.736 46.5727 57.682 43.3767 57.682ZM52.4533 54.384C55.1393 54.095 57.2473 52.99 58.0803 51.409C58.8963 52.99 60.9873 54.095 63.7073 54.384L64.3193 53.024C61.4633 52.735 59.4743 51.511 59.2533 50.117H63.7583V48.706H52.4193V50.117H56.8903C56.6693 51.511 54.6803 52.735 51.8243 53.024L52.4533 54.384ZM58.0463 61.932C55.8023 61.932 54.5443 61.439 54.5443 60.504C54.5443 59.552 55.8023 59.059 58.0463 59.059C60.2903 59.059 61.5653 59.552 61.5653 60.504C61.5653 61.439 60.2903 61.932 58.0463 61.932ZM58.0463 57.682C54.7653 57.682 52.7593 58.719 52.7593 60.504C52.7593 62.289 54.7653 63.309 58.0463 63.309C61.3443 63.309 63.3333 62.289 63.3333 60.504C63.3333 58.719 61.3443 57.682 58.0463 57.682ZM51.1273 55.166V56.577H65.0163V55.166H51.1273ZM75.9734 49.233H74.2224V51.749C74.2224 54.588 72.7264 57.495 70.3294 58.668L71.4004 60.079C73.1514 59.178 74.4434 57.393 75.1064 55.268C75.7694 57.274 76.9934 58.94 78.6424 59.79L79.7134 58.396C77.4014 57.257 75.9734 54.486 75.9734 51.749V49.233ZM84.8814 54.044H82.4844V47.958H80.7334V63.309H82.4844V55.489H84.8814V54.044ZM98.888 47.975H97.137V59.144H98.888V47.975ZM95.709 55.71C93.346 54.945 91.952 53.075 91.952 51.12V50.559H95.233V49.148H86.835V50.559H90.167V51.12C90.167 53.194 88.79 55.183 86.359 55.999L87.277 57.359C89.113 56.747 90.405 55.438 91.085 53.806C91.765 55.319 93.057 56.509 94.825 57.087L95.709 55.71ZM90.626 61.592V58.124H88.858V63.02H99.33V61.592H90.626ZM114.826 55.251C112.497 54.605 111.103 52.973 111.103 51.205V51.035H114.333V49.641H111.12V47.907H109.352V49.641H106.122V51.035H109.352V51.205C109.352 53.092 108.009 54.826 105.646 55.506L106.479 56.883C108.298 56.322 109.59 55.166 110.27 53.687C110.967 55.047 112.276 56.118 114.044 56.611L114.826 55.251ZM110.049 59.144H116.696V61.728H110.049V59.144ZM108.332 63.122H118.413V57.75H108.332V63.122ZM116.662 47.958V52.106H113.942V53.551H116.662V57.002H118.413V47.958H116.662ZM131.774 53.857H124.753V51.902H131.774V53.857ZM133.525 48.553H131.774V50.491H124.753V48.553H123.002V55.268H133.525V48.553ZM135.242 56.934H121.319V58.345H127.354V63.326H129.105V58.345H135.242V56.934Z" fill="white"/>
</g>
<defs>
<filter id="filter0_d" x="0" y="0" width="155" height="88.5417" filterUnits="userSpaceOnUse" color-interpolation-filters="sRGB">
<feFlood flood-opacity="0" result="BackgroundImageFix"/>
<feColorMatrix in="SourceAlpha" type="matrix" values="0 0 0 0 0 0 0 0 0 0 0 0 0 0 0 0 0 0 127 0" result="hardAlpha"/>
<feOffset dy="3"/>
<feGaussianBlur stdDeviation="2.5"/>
<feComposite in2="hardAlpha" operator="out"/>
<feColorMatrix type="matrix" values="0 0 0 0 0 0 0 0 0 0 0 0 0 0 0 0 0 0 0.1 0"/>
<feBlend mode="normal" in2="BackgroundImageFix" result="effect1_dropShadow"/>
<feBlend mode="normal" in="SourceGraphic" in2="effect1_dropShadow" result="shape"/>
</filter>
</defs>
</svg>
